ISO-10303-21;
HEADER;
/* Generated by software containing ST-Developer
 * from STEP Tools, Inc. (www.steptools.com)
 */

FILE_DESCRIPTION(
/* description */ (''),
/* implementation_level */ '2;1');

FILE_NAME(
/* name */ 'Point_holder_v4.step',
/* time_stamp */ '2026-07-10T12:20:27-04:00',
/* author */ (''),
/* organization */ (''),
/* preprocessor_version */ 'ST-DEVELOPER v20.1',
/* originating_system */ 'Autodesk Translation Framework v15.8.0.0',
/* authorisation */ '');

FILE_SCHEMA (('AUTOMOTIVE_DESIGN { 1 0 10303 214 3 1 1 }'));
ENDSEC;

DATA;
#10=MECHANICAL_DESIGN_GEOMETRIC_PRESENTATION_REPRESENTATION('',(#13),#1557);
#11=SHAPE_REPRESENTATION_RELATIONSHIP('SRR','None',#1564,#12);
#12=ADVANCED_BREP_SHAPE_REPRESENTATION('',(#14),#1556);
#13=STYLED_ITEM('',(#1573),#14);
#14=MANIFOLD_SOLID_BREP('Body1',#886);
#15=FACE_BOUND('',#150,.T.);
#16=FACE_BOUND('',#211,.T.);
#17=FACE_BOUND('',#212,.T.);
#18=FACE_BOUND('',#213,.T.);
#19=FACE_BOUND('',#214,.T.);
#20=FACE_BOUND('',#215,.T.);
#21=FACE_BOUND('',#216,.T.);
#22=FACE_BOUND('',#217,.T.);
#23=FACE_BOUND('',#218,.T.);
#24=FACE_BOUND('',#219,.T.);
#25=FACE_BOUND('',#220,.T.);
#26=FACE_BOUND('',#221,.T.);
#27=FACE_BOUND('',#222,.T.);
#28=FACE_BOUND('',#223,.T.);
#29=FACE_BOUND('',#224,.T.);
#30=FACE_BOUND('',#225,.T.);
#31=FACE_BOUND('',#226,.T.);
#32=FACE_BOUND('',#227,.T.);
#33=FACE_BOUND('',#228,.T.);
#34=FACE_BOUND('',#229,.T.);
#35=FACE_BOUND('',#230,.T.);
#36=FACE_BOUND('',#231,.T.);
#37=FACE_BOUND('',#232,.T.);
#38=FACE_BOUND('',#233,.T.);
#39=FACE_BOUND('',#234,.T.);
#40=FACE_BOUND('',#235,.T.);
#41=PLANE('',#903);
#42=PLANE('',#904);
#43=PLANE('',#905);
#44=PLANE('',#906);
#45=PLANE('',#907);
#46=PLANE('',#908);
#47=PLANE('',#910);
#48=PLANE('',#912);
#49=PLANE('',#914);
#50=PLANE('',#916);
#51=PLANE('',#918);
#52=PLANE('',#920);
#53=PLANE('',#922);
#54=PLANE('',#924);
#55=PLANE('',#926);
#56=PLANE('',#928);
#57=PLANE('',#930);
#58=PLANE('',#932);
#59=PLANE('',#934);
#60=PLANE('',#936);
#61=PLANE('',#938);
#62=PLANE('',#940);
#63=PLANE('',#942);
#64=PLANE('',#944);
#65=PLANE('',#946);
#66=PLANE('',#948);
#67=PLANE('',#950);
#68=PLANE('',#952);
#69=PLANE('',#954);
#70=PLANE('',#956);
#71=PLANE('',#958);
#72=PLANE('',#959);
#73=PLANE('',#1010);
#74=PLANE('',#1011);
#75=PLANE('',#1012);
#76=PLANE('',#1013);
#77=PLANE('',#1014);
#78=PLANE('',#1015);
#79=PLANE('',#1016);
#80=FACE_OUTER_BOUND('',#145,.T.);
#81=FACE_OUTER_BOUND('',#146,.T.);
#82=FACE_OUTER_BOUND('',#147,.T.);
#83=FACE_OUTER_BOUND('',#148,.T.);
#84=FACE_OUTER_BOUND('',#149,.T.);
#85=FACE_OUTER_BOUND('',#151,.T.);
#86=FACE_OUTER_BOUND('',#152,.T.);
#87=FACE_OUTER_BOUND('',#153,.T.);
#88=FACE_OUTER_BOUND('',#154,.T.);
#89=FACE_OUTER_BOUND('',#155,.T.);
#90=FACE_OUTER_BOUND('',#156,.T.);
#91=FACE_OUTER_BOUND('',#157,.T.);
#92=FACE_OUTER_BOUND('',#158,.T.);
#93=FACE_OUTER_BOUND('',#159,.T.);
#94=FACE_OUTER_BOUND('',#160,.T.);
#95=FACE_OUTER_BOUND('',#161,.T.);
#96=FACE_OUTER_BOUND('',#162,.T.);
#97=FACE_OUTER_BOUND('',#163,.T.);
#98=FACE_OUTER_BOUND('',#164,.T.);
#99=FACE_OUTER_BOUND('',#165,.T.);
#100=FACE_OUTER_BOUND('',#166,.T.);
#101=FACE_OUTER_BOUND('',#167,.T.);
#102=FACE_OUTER_BOUND('',#168,.T.);
#103=FACE_OUTER_BOUND('',#169,.T.);
#104=FACE_OUTER_BOUND('',#170,.T.);
#105=FACE_OUTER_BOUND('',#171,.T.);
#106=FACE_OUTER_BOUND('',#172,.T.);
#107=FACE_OUTER_BOUND('',#173,.T.);
#108=FACE_OUTER_BOUND('',#174,.T.);
#109=FACE_OUTER_BOUND('',#175,.T.);
#110=FACE_OUTER_BOUND('',#176,.T.);
#111=FACE_OUTER_BOUND('',#177,.T.);
#112=FACE_OUTER_BOUND('',#178,.T.);
#113=FACE_OUTER_BOUND('',#179,.T.);
#114=FACE_OUTER_BOUND('',#180,.T.);
#115=FACE_OUTER_BOUND('',#181,.T.);
#116=FACE_OUTER_BOUND('',#182,.T.);
#117=FACE_OUTER_BOUND('',#183,.T.);
#118=FACE_OUTER_BOUND('',#184,.T.);
#119=FACE_OUTER_BOUND('',#185,.T.);
#120=FACE_OUTER_BOUND('',#186,.T.);
#121=FACE_OUTER_BOUND('',#187,.T.);
#122=FACE_OUTER_BOUND('',#188,.T.);
#123=FACE_OUTER_BOUND('',#189,.T.);
#124=FACE_OUTER_BOUND('',#190,.T.);
#125=FACE_OUTER_BOUND('',#191,.T.);
#126=FACE_OUTER_BOUND('',#192,.T.);
#127=FACE_OUTER_BOUND('',#193,.T.);
#128=FACE_OUTER_BOUND('',#194,.T.);
#129=FACE_OUTER_BOUND('',#195,.T.);
#130=FACE_OUTER_BOUND('',#196,.T.);
#131=FACE_OUTER_BOUND('',#197,.T.);
#132=FACE_OUTER_BOUND('',#198,.T.);
#133=FACE_OUTER_BOUND('',#199,.T.);
#134=FACE_OUTER_BOUND('',#200,.T.);
#135=FACE_OUTER_BOUND('',#201,.T.);
#136=FACE_OUTER_BOUND('',#202,.T.);
#137=FACE_OUTER_BOUND('',#203,.T.);
#138=FACE_OUTER_BOUND('',#204,.T.);
#139=FACE_OUTER_BOUND('',#205,.T.);
#140=FACE_OUTER_BOUND('',#206,.T.);
#141=FACE_OUTER_BOUND('',#207,.T.);
#142=FACE_OUTER_BOUND('',#208,.T.);
#143=FACE_OUTER_BOUND('',#209,.T.);
#144=FACE_OUTER_BOUND('',#210,.T.);
#145=EDGE_LOOP('',(#579,#580,#581,#582));
#146=EDGE_LOOP('',(#583));
#147=EDGE_LOOP('',(#584,#585,#586,#587));
#148=EDGE_LOOP('',(#588,#589,#590,#591));
#149=EDGE_LOOP('',(#592,#593,#594,#595));
#150=EDGE_LOOP('',(#596));
#151=EDGE_LOOP('',(#597,#598,#599,#600));
#152=EDGE_LOOP('',(#601));
#153=EDGE_LOOP('',(#602));
#154=EDGE_LOOP('',(#603));
#155=EDGE_LOOP('',(#604));
#156=EDGE_LOOP('',(#605));
#157=EDGE_LOOP('',(#606));
#158=EDGE_LOOP('',(#607));
#159=EDGE_LOOP('',(#608));
#160=EDGE_LOOP('',(#609));
#161=EDGE_LOOP('',(#610));
#162=EDGE_LOOP('',(#611));
#163=EDGE_LOOP('',(#612));
#164=EDGE_LOOP('',(#613));
#165=EDGE_LOOP('',(#614));
#166=EDGE_LOOP('',(#615));
#167=EDGE_LOOP('',(#616));
#168=EDGE_LOOP('',(#617));
#169=EDGE_LOOP('',(#618));
#170=EDGE_LOOP('',(#619));
#171=EDGE_LOOP('',(#620));
#172=EDGE_LOOP('',(#621));
#173=EDGE_LOOP('',(#622));
#174=EDGE_LOOP('',(#623));
#175=EDGE_LOOP('',(#624));
#176=EDGE_LOOP('',(#625));
#177=EDGE_LOOP('',(#626,#627,#628,#629));
#178=EDGE_LOOP('',(#630,#631,#632,#633));
#179=EDGE_LOOP('',(#634,#635,#636,#637));
#180=EDGE_LOOP('',(#638,#639,#640,#641));
#181=EDGE_LOOP('',(#642,#643,#644,#645));
#182=EDGE_LOOP('',(#646,#647,#648,#649));
#183=EDGE_LOOP('',(#650,#651,#652,#653));
#184=EDGE_LOOP('',(#654,#655,#656,#657));
#185=EDGE_LOOP('',(#658,#659,#660,#661));
#186=EDGE_LOOP('',(#662,#663,#664,#665));
#187=EDGE_LOOP('',(#666,#667,#668,#669));
#188=EDGE_LOOP('',(#670,#671,#672,#673));
#189=EDGE_LOOP('',(#674,#675,#676,#677));
#190=EDGE_LOOP('',(#678,#679,#680,#681));
#191=EDGE_LOOP('',(#682,#683,#684,#685));
#192=EDGE_LOOP('',(#686,#687,#688,#689));
#193=EDGE_LOOP('',(#690,#691,#692,#693));
#194=EDGE_LOOP('',(#694,#695,#696,#697));
#195=EDGE_LOOP('',(#698,#699,#700,#701));
#196=EDGE_LOOP('',(#702,#703,#704,#705));
#197=EDGE_LOOP('',(#706,#707,#708,#709));
#198=EDGE_LOOP('',(#710,#711,#712,#713));
#199=EDGE_LOOP('',(#714,#715,#716,#717));
#200=EDGE_LOOP('',(#718,#719,#720,#721));
#201=EDGE_LOOP('',(#722,#723,#724,#725));
#202=EDGE_LOOP('',(#726,#727,#728,#729));
#203=EDGE_LOOP('',(#730,#731,#732,#733));
#204=EDGE_LOOP('',(#734,#735,#736,#737,#738,#739));
#205=EDGE_LOOP('',(#740,#741,#742,#743,#744));
#206=EDGE_LOOP('',(#745,#746,#747,#748));
#207=EDGE_LOOP('',(#749,#750,#751,#752,#753));
#208=EDGE_LOOP('',(#754,#755,#756,#757));
#209=EDGE_LOOP('',(#758,#759,#760,#761,#762,#763));
#210=EDGE_LOOP('',(#764,#765,#766,#767,#768,#769));
#211=EDGE_LOOP('',(#770));
#212=EDGE_LOOP('',(#771));
#213=EDGE_LOOP('',(#772));
#214=EDGE_LOOP('',(#773));
#215=EDGE_LOOP('',(#774));
#216=EDGE_LOOP('',(#775));
#217=EDGE_LOOP('',(#776));
#218=EDGE_LOOP('',(#777));
#219=EDGE_LOOP('',(#778));
#220=EDGE_LOOP('',(#779));
#221=EDGE_LOOP('',(#780));
#222=EDGE_LOOP('',(#781));
#223=EDGE_LOOP('',(#782));
#224=EDGE_LOOP('',(#783));
#225=EDGE_LOOP('',(#784));
#226=EDGE_LOOP('',(#785));
#227=EDGE_LOOP('',(#786));
#228=EDGE_LOOP('',(#787));
#229=EDGE_LOOP('',(#788));
#230=EDGE_LOOP('',(#789));
#231=EDGE_LOOP('',(#790));
#232=EDGE_LOOP('',(#791));
#233=EDGE_LOOP('',(#792));
#234=EDGE_LOOP('',(#793));
#235=EDGE_LOOP('',(#794));
#236=LINE('',#1314,#292);
#237=LINE('',#1320,#293);
#238=LINE('',#1322,#294);
#239=LINE('',#1324,#295);
#240=LINE('',#1325,#296);
#241=LINE('',#1328,#297);
#242=LINE('',#1330,#298);
#243=LINE('',#1331,#299);
#244=LINE('',#1334,#300);
#245=LINE('',#1335,#301);
#246=LINE('',#1338,#302);
#247=LINE('',#1340,#303);
#248=LINE('',#1341,#304);
#249=LINE('',#1420,#305);
#250=LINE('',#1421,#306);
#251=LINE('',#1422,#307);
#252=LINE('',#1425,#308);
#253=LINE('',#1427,#309);
#254=LINE('',#1428,#310);
#255=LINE('',#1431,#311);
#256=LINE('',#1435,#312);
#257=LINE('',#1439,#313);
#258=LINE('',#1443,#314);
#259=LINE('',#1447,#315);
#260=LINE('',#1451,#316);
#261=LINE('',#1455,#317);
#262=LINE('',#1459,#318);
#263=LINE('',#1463,#319);
#264=LINE('',#1467,#320);
#265=LINE('',#1471,#321);
#266=LINE('',#1475,#322);
#267=LINE('',#1479,#323);
#268=LINE('',#1483,#324);
#269=LINE('',#1487,#325);
#270=LINE('',#1491,#326);
#271=LINE('',#1495,#327);
#272=LINE('',#1499,#328);
#273=LINE('',#1503,#329);
#274=LINE('',#1507,#330);
#275=LINE('',#1511,#331);
#276=LINE('',#1515,#332);
#277=LINE('',#1519,#333);
#278=LINE('',#1523,#334);
#279=LINE('',#1527,#335);
#280=LINE('',#1532,#336);
#281=LINE('',#1533,#337);
#282=LINE('',#1534,#338);
#283=LINE('',#1537,#339);
#284=LINE('',#1538,#340);
#285=LINE('',#1541,#341);
#286=LINE('',#1542,#342);
#287=LINE('',#1545,#343);
#288=LINE('',#1546,#344);
#289=LINE('',#1549,#345);
#290=LINE('',#1550,#346);
#291=LINE('',#1552,#347);
#292=VECTOR('',#1023,5.);
#293=VECTOR('',#1030,10.);
#294=VECTOR('',#1031,10.);
#295=VECTOR('',#1032,10.);
#296=VECTOR('',#1033,10.);
#297=VECTOR('',#1036,10.);
#298=VECTOR('',#1037,10.);
#299=VECTOR('',#1038,10.);
#300=VECTOR('',#1041,10.);
#301=VECTOR('',#1042,10.);
#302=VECTOR('',#1045,10.);
#303=VECTOR('',#1046,10.);
#304=VECTOR('',#1047,10.);
#305=VECTOR('',#1150,10.);
#306=VECTOR('',#1151,10.);
#307=VECTOR('',#1152,10.);
#308=VECTOR('',#1155,10.);
#309=VECTOR('',#1156,10.);
#310=VECTOR('',#1157,10.);
#311=VECTOR('',#1160,1.1);
#312=VECTOR('',#1165,1.1);
#313=VECTOR('',#1170,1.09999999999999);
#314=VECTOR('',#1175,1.1);
#315=VECTOR('',#1180,1.09999999999999);
#316=VECTOR('',#1185,1.1);
#317=VECTOR('',#1190,1.1);
#318=VECTOR('',#1195,1.1);
#319=VECTOR('',#1200,1.1);
#320=VECTOR('',#1205,1.1);
#321=VECTOR('',#1210,1.1);
#322=VECTOR('',#1215,1.1);
#323=VECTOR('',#1220,1.1);
#324=VECTOR('',#1225,1.09999999999999);
#325=VECTOR('',#1230,1.1);
#326=VECTOR('',#1235,1.1);
#327=VECTOR('',#1240,1.1);
#328=VECTOR('',#1245,1.1);
#329=VECTOR('',#1250,1.1);
#330=VECTOR('',#1255,1.1);
#331=VECTOR('',#1260,1.1);
#332=VECTOR('',#1265,1.1);
#333=VECTOR('',#1270,1.1);
#334=VECTOR('',#1275,1.1);
#335=VECTOR('',#1280,1.09999999999999);
#336=VECTOR('',#1285,10.);
#337=VECTOR('',#1286,10.);
#338=VECTOR('',#1287,10.);
#339=VECTOR('',#1290,10.);
#340=VECTOR('',#1291,10.);
#341=VECTOR('',#1294,10.);
#342=VECTOR('',#1295,10.);
#343=VECTOR('',#1298,10.);
#344=VECTOR('',#1299,10.);
#345=VECTOR('',#1302,10.);
#346=VECTOR('',#1303,10.);
#347=VECTOR('',#1306,10.);
#348=CIRCLE('',#901,5.);
#349=CIRCLE('',#902,5.);
#350=CIRCLE('',#909,1.09999999999999);
#351=CIRCLE('',#911,1.1);
#352=CIRCLE('',#913,1.1);
#353=CIRCLE('',#915,1.1);
#354=CIRCLE('',#917,1.1);
#355=CIRCLE('',#919,1.1);
#356=CIRCLE('',#921,1.1);
#357=CIRCLE('',#923,1.1);
#358=CIRCLE('',#925,1.1);
#359=CIRCLE('',#927,1.1);
#360=CIRCLE('',#929,1.1);
#361=CIRCLE('',#931,1.09999999999999);
#362=CIRCLE('',#933,1.1);
#363=CIRCLE('',#935,1.1);
#364=CIRCLE('',#937,1.1);
#365=CIRCLE('',#939,1.1);
#366=CIRCLE('',#941,1.1);
#367=CIRCLE('',#943,1.1);
#368=CIRCLE('',#945,1.1);
#369=CIRCLE('',#947,1.1);
#370=CIRCLE('',#949,1.09999999999999);
#371=CIRCLE('',#951,1.1);
#372=CIRCLE('',#953,1.09999999999999);
#373=CIRCLE('',#955,1.1);
#374=CIRCLE('',#957,1.1);
#375=CIRCLE('',#961,1.1);
#376=CIRCLE('',#963,1.1);
#377=CIRCLE('',#965,1.09999999999999);
#378=CIRCLE('',#967,1.1);
#379=CIRCLE('',#969,1.09999999999999);
#380=CIRCLE('',#971,1.1);
#381=CIRCLE('',#973,1.1);
#382=CIRCLE('',#975,1.1);
#383=CIRCLE('',#977,1.1);
#384=CIRCLE('',#979,1.1);
#385=CIRCLE('',#981,1.1);
#386=CIRCLE('',#983,1.1);
#387=CIRCLE('',#985,1.1);
#388=CIRCLE('',#987,1.09999999999999);
#389=CIRCLE('',#989,1.1);
#390=CIRCLE('',#991,1.1);
#391=CIRCLE('',#993,1.1);
#392=CIRCLE('',#995,1.1);
#393=CIRCLE('',#997,1.1);
#394=CIRCLE('',#999,1.1);
#395=CIRCLE('',#1001,1.1);
#396=CIRCLE('',#1003,1.1);
#397=CIRCLE('',#1005,1.1);
#398=CIRCLE('',#1007,1.1);
#399=CIRCLE('',#1009,1.09999999999999);
#400=VERTEX_POINT('',#1311);
#401=VERTEX_POINT('',#1313);
#402=VERTEX_POINT('',#1318);
#403=VERTEX_POINT('',#1319);
#404=VERTEX_POINT('',#1321);
#405=VERTEX_POINT('',#1323);
#406=VERTEX_POINT('',#1327);
#407=VERTEX_POINT('',#1329);
#408=VERTEX_POINT('',#1333);
#409=VERTEX_POINT('',#1337);
#410=VERTEX_POINT('',#1339);
#411=VERTEX_POINT('',#1343);
#412=VERTEX_POINT('',#1346);
#413=VERTEX_POINT('',#1349);
#414=VERTEX_POINT('',#1352);
#415=VERTEX_POINT('',#1355);
#416=VERTEX_POINT('',#1358);
#417=VERTEX_POINT('',#1361);
#418=VERTEX_POINT('',#1364);
#419=VERTEX_POINT('',#1367);
#420=VERTEX_POINT('',#1370);
#421=VERTEX_POINT('',#1373);
#422=VERTEX_POINT('',#1376);
#423=VERTEX_POINT('',#1379);
#424=VERTEX_POINT('',#1382);
#425=VERTEX_POINT('',#1385);
#426=VERTEX_POINT('',#1388);
#427=VERTEX_POINT('',#1391);
#428=VERTEX_POINT('',#1394);
#429=VERTEX_POINT('',#1397);
#430=VERTEX_POINT('',#1400);
#431=VERTEX_POINT('',#1403);
#432=VERTEX_POINT('',#1406);
#433=VERTEX_POINT('',#1409);
#434=VERTEX_POINT('',#1412);
#435=VERTEX_POINT('',#1415);
#436=VERTEX_POINT('',#1418);
#437=VERTEX_POINT('',#1419);
#438=VERTEX_POINT('',#1424);
#439=VERTEX_POINT('',#1426);
#440=VERTEX_POINT('',#1430);
#441=VERTEX_POINT('',#1434);
#442=VERTEX_POINT('',#1438);
#443=VERTEX_POINT('',#1442);
#444=VERTEX_POINT('',#1446);
#445=VERTEX_POINT('',#1450);
#446=VERTEX_POINT('',#1454);
#447=VERTEX_POINT('',#1458);
#448=VERTEX_POINT('',#1462);
#449=VERTEX_POINT('',#1466);
#450=VERTEX_POINT('',#1470);
#451=VERTEX_POINT('',#1474);
#452=VERTEX_POINT('',#1478);
#453=VERTEX_POINT('',#1482);
#454=VERTEX_POINT('',#1486);
#455=VERTEX_POINT('',#1490);
#456=VERTEX_POINT('',#1494);
#457=VERTEX_POINT('',#1498);
#458=VERTEX_POINT('',#1502);
#459=VERTEX_POINT('',#1506);
#460=VERTEX_POINT('',#1510);
#461=VERTEX_POINT('',#1514);
#462=VERTEX_POINT('',#1518);
#463=VERTEX_POINT('',#1522);
#464=VERTEX_POINT('',#1526);
#465=VERTEX_POINT('',#1530);
#466=VERTEX_POINT('',#1531);
#467=VERTEX_POINT('',#1536);
#468=VERTEX_POINT('',#1540);
#469=VERTEX_POINT('',#1544);
#470=VERTEX_POINT('',#1548);
#471=EDGE_CURVE('',#400,#400,#348,.T.);
#472=EDGE_CURVE('',#400,#401,#236,.T.);
#473=EDGE_CURVE('',#401,#401,#349,.T.);
#474=EDGE_CURVE('',#402,#403,#237,.T.);
#475=EDGE_CURVE('',#402,#404,#238,.T.);
#476=EDGE_CURVE('',#405,#404,#239,.T.);
#477=EDGE_CURVE('',#403,#405,#240,.T.);
#478=EDGE_CURVE('',#403,#406,#241,.T.);
#479=EDGE_CURVE('',#407,#405,#242,.T.);
#480=EDGE_CURVE('',#406,#407,#243,.T.);
#481=EDGE_CURVE('',#404,#408,#244,.T.);
#482=EDGE_CURVE('',#408,#407,#245,.T.);
#483=EDGE_CURVE('',#403,#409,#246,.T.);
#484=EDGE_CURVE('',#409,#410,#247,.T.);
#485=EDGE_CURVE('',#410,#402,#248,.T.);
#486=EDGE_CURVE('',#411,#411,#350,.T.);
#487=EDGE_CURVE('',#412,#412,#351,.T.);
#488=EDGE_CURVE('',#413,#413,#352,.T.);
#489=EDGE_CURVE('',#414,#414,#353,.T.);
#490=EDGE_CURVE('',#415,#415,#354,.T.);
#491=EDGE_CURVE('',#416,#416,#355,.T.);
#492=EDGE_CURVE('',#417,#417,#356,.T.);
#493=EDGE_CURVE('',#418,#418,#357,.T.);
#494=EDGE_CURVE('',#419,#419,#358,.T.);
#495=EDGE_CURVE('',#420,#420,#359,.T.);
#496=EDGE_CURVE('',#421,#421,#360,.T.);
#497=EDGE_CURVE('',#422,#422,#361,.T.);
#498=EDGE_CURVE('',#423,#423,#362,.T.);
#499=EDGE_CURVE('',#424,#424,#363,.T.);
#500=EDGE_CURVE('',#425,#425,#364,.T.);
#501=EDGE_CURVE('',#426,#426,#365,.T.);
#502=EDGE_CURVE('',#427,#427,#366,.T.);
#503=EDGE_CURVE('',#428,#428,#367,.T.);
#504=EDGE_CURVE('',#429,#429,#368,.T.);
#505=EDGE_CURVE('',#430,#430,#369,.T.);
#506=EDGE_CURVE('',#431,#431,#370,.T.);
#507=EDGE_CURVE('',#432,#432,#371,.T.);
#508=EDGE_CURVE('',#433,#433,#372,.T.);
#509=EDGE_CURVE('',#434,#434,#373,.T.);
#510=EDGE_CURVE('',#435,#435,#374,.T.);
#511=EDGE_CURVE('',#436,#437,#249,.T.);
#512=EDGE_CURVE('',#437,#409,#250,.T.);
#513=EDGE_CURVE('',#436,#403,#251,.T.);
#514=EDGE_CURVE('',#406,#438,#252,.T.);
#515=EDGE_CURVE('',#438,#439,#253,.T.);
#516=EDGE_CURVE('',#439,#403,#254,.T.);
#517=EDGE_CURVE('',#435,#440,#255,.T.);
#518=EDGE_CURVE('',#440,#440,#375,.T.);
#519=EDGE_CURVE('',#434,#441,#256,.T.);
#520=EDGE_CURVE('',#441,#441,#376,.T.);
#521=EDGE_CURVE('',#433,#442,#257,.T.);
#522=EDGE_CURVE('',#442,#442,#377,.T.);
#523=EDGE_CURVE('',#432,#443,#258,.T.);
#524=EDGE_CURVE('',#443,#443,#378,.T.);
#525=EDGE_CURVE('',#431,#444,#259,.T.);
#526=EDGE_CURVE('',#444,#444,#379,.T.);
#527=EDGE_CURVE('',#430,#445,#260,.T.);
#528=EDGE_CURVE('',#445,#445,#380,.T.);
#529=EDGE_CURVE('',#429,#446,#261,.T.);
#530=EDGE_CURVE('',#446,#446,#381,.T.);
#531=EDGE_CURVE('',#428,#447,#262,.T.);
#532=EDGE_CURVE('',#447,#447,#382,.T.);
#533=EDGE_CURVE('',#427,#448,#263,.T.);
#534=EDGE_CURVE('',#448,#448,#383,.T.);
#535=EDGE_CURVE('',#426,#449,#264,.T.);
#536=EDGE_CURVE('',#449,#449,#384,.T.);
#537=EDGE_CURVE('',#425,#450,#265,.T.);
#538=EDGE_CURVE('',#450,#450,#385,.T.);
#539=EDGE_CURVE('',#424,#451,#266,.T.);
#540=EDGE_CURVE('',#451,#451,#386,.T.);
#541=EDGE_CURVE('',#423,#452,#267,.T.);
#542=EDGE_CURVE('',#452,#452,#387,.T.);
#543=EDGE_CURVE('',#422,#453,#268,.T.);
#544=EDGE_CURVE('',#453,#453,#388,.T.);
#545=EDGE_CURVE('',#421,#454,#269,.T.);
#546=EDGE_CURVE('',#454,#454,#389,.T.);
#547=EDGE_CURVE('',#420,#455,#270,.T.);
#548=EDGE_CURVE('',#455,#455,#390,.T.);
#549=EDGE_CURVE('',#419,#456,#271,.T.);
#550=EDGE_CURVE('',#456,#456,#391,.T.);
#551=EDGE_CURVE('',#418,#457,#272,.T.);
#552=EDGE_CURVE('',#457,#457,#392,.T.);
#553=EDGE_CURVE('',#417,#458,#273,.T.);
#554=EDGE_CURVE('',#458,#458,#393,.T.);
#555=EDGE_CURVE('',#416,#459,#274,.T.);
#556=EDGE_CURVE('',#459,#459,#394,.T.);
#557=EDGE_CURVE('',#415,#460,#275,.T.);
#558=EDGE_CURVE('',#460,#460,#395,.T.);
#559=EDGE_CURVE('',#414,#461,#276,.T.);
#560=EDGE_CURVE('',#461,#461,#396,.T.);
#561=EDGE_CURVE('',#413,#462,#277,.T.);
#562=EDGE_CURVE('',#462,#462,#397,.T.);
#563=EDGE_CURVE('',#412,#463,#278,.T.);
#564=EDGE_CURVE('',#463,#463,#398,.T.);
#565=EDGE_CURVE('',#411,#464,#279,.T.);
#566=EDGE_CURVE('',#464,#464,#399,.T.);
#567=EDGE_CURVE('',#465,#466,#280,.T.);
#568=EDGE_CURVE('',#465,#408,#281,.T.);
#569=EDGE_CURVE('',#466,#410,#282,.T.);
#570=EDGE_CURVE('',#466,#467,#283,.T.);
#571=EDGE_CURVE('',#467,#437,#284,.T.);
#572=EDGE_CURVE('',#467,#468,#285,.T.);
#573=EDGE_CURVE('',#468,#436,#286,.T.);
#574=EDGE_CURVE('',#468,#469,#287,.T.);
#575=EDGE_CURVE('',#469,#439,#288,.T.);
#576=EDGE_CURVE('',#469,#470,#289,.T.);
#577=EDGE_CURVE('',#470,#438,#290,.T.);
#578=EDGE_CURVE('',#470,#465,#291,.T.);
#579=ORIENTED_EDGE('',*,*,#471,.F.);
#580=ORIENTED_EDGE('',*,*,#472,.T.);
#581=ORIENTED_EDGE('',*,*,#473,.F.);
#582=ORIENTED_EDGE('',*,*,#472,.F.);
#583=ORIENTED_EDGE('',*,*,#471,.T.);
#584=ORIENTED_EDGE('',*,*,#474,.F.);
#585=ORIENTED_EDGE('',*,*,#475,.T.);
#586=ORIENTED_EDGE('',*,*,#476,.F.);
#587=ORIENTED_EDGE('',*,*,#477,.F.);
#588=ORIENTED_EDGE('',*,*,#478,.F.);
#589=ORIENTED_EDGE('',*,*,#477,.T.);
#590=ORIENTED_EDGE('',*,*,#479,.F.);
#591=ORIENTED_EDGE('',*,*,#480,.F.);
#592=ORIENTED_EDGE('',*,*,#481,.T.);
#593=ORIENTED_EDGE('',*,*,#482,.T.);
#594=ORIENTED_EDGE('',*,*,#479,.T.);
#595=ORIENTED_EDGE('',*,*,#476,.T.);
#596=ORIENTED_EDGE('',*,*,#473,.T.);
#597=ORIENTED_EDGE('',*,*,#474,.T.);
#598=ORIENTED_EDGE('',*,*,#483,.T.);
#599=ORIENTED_EDGE('',*,*,#484,.T.);
#600=ORIENTED_EDGE('',*,*,#485,.T.);
#601=ORIENTED_EDGE('',*,*,#486,.T.);
#602=ORIENTED_EDGE('',*,*,#487,.T.);
#603=ORIENTED_EDGE('',*,*,#488,.T.);
#604=ORIENTED_EDGE('',*,*,#489,.T.);
#605=ORIENTED_EDGE('',*,*,#490,.T.);
#606=ORIENTED_EDGE('',*,*,#491,.T.);
#607=ORIENTED_EDGE('',*,*,#492,.T.);
#608=ORIENTED_EDGE('',*,*,#493,.T.);
#609=ORIENTED_EDGE('',*,*,#494,.T.);
#610=ORIENTED_EDGE('',*,*,#495,.T.);
#611=ORIENTED_EDGE('',*,*,#496,.T.);
#612=ORIENTED_EDGE('',*,*,#497,.T.);
#613=ORIENTED_EDGE('',*,*,#498,.T.);
#614=ORIENTED_EDGE('',*,*,#499,.T.);
#615=ORIENTED_EDGE('',*,*,#500,.T.);
#616=ORIENTED_EDGE('',*,*,#501,.T.);
#617=ORIENTED_EDGE('',*,*,#502,.T.);
#618=ORIENTED_EDGE('',*,*,#503,.T.);
#619=ORIENTED_EDGE('',*,*,#504,.T.);
#620=ORIENTED_EDGE('',*,*,#505,.T.);
#621=ORIENTED_EDGE('',*,*,#506,.T.);
#622=ORIENTED_EDGE('',*,*,#507,.T.);
#623=ORIENTED_EDGE('',*,*,#508,.T.);
#624=ORIENTED_EDGE('',*,*,#509,.T.);
#625=ORIENTED_EDGE('',*,*,#510,.T.);
#626=ORIENTED_EDGE('',*,*,#511,.T.);
#627=ORIENTED_EDGE('',*,*,#512,.T.);
#628=ORIENTED_EDGE('',*,*,#483,.F.);
#629=ORIENTED_EDGE('',*,*,#513,.F.);
#630=ORIENTED_EDGE('',*,*,#478,.T.);
#631=ORIENTED_EDGE('',*,*,#514,.T.);
#632=ORIENTED_EDGE('',*,*,#515,.T.);
#633=ORIENTED_EDGE('',*,*,#516,.T.);
#634=ORIENTED_EDGE('',*,*,#510,.F.);
#635=ORIENTED_EDGE('',*,*,#517,.T.);
#636=ORIENTED_EDGE('',*,*,#518,.T.);
#637=ORIENTED_EDGE('',*,*,#517,.F.);
#638=ORIENTED_EDGE('',*,*,#509,.F.);
#639=ORIENTED_EDGE('',*,*,#519,.T.);
#640=ORIENTED_EDGE('',*,*,#520,.T.);
#641=ORIENTED_EDGE('',*,*,#519,.F.);
#642=ORIENTED_EDGE('',*,*,#508,.F.);
#643=ORIENTED_EDGE('',*,*,#521,.T.);
#644=ORIENTED_EDGE('',*,*,#522,.T.);
#645=ORIENTED_EDGE('',*,*,#521,.F.);
#646=ORIENTED_EDGE('',*,*,#507,.F.);
#647=ORIENTED_EDGE('',*,*,#523,.T.);
#648=ORIENTED_EDGE('',*,*,#524,.T.);
#649=ORIENTED_EDGE('',*,*,#523,.F.);
#650=ORIENTED_EDGE('',*,*,#506,.F.);
#651=ORIENTED_EDGE('',*,*,#525,.T.);
#652=ORIENTED_EDGE('',*,*,#526,.T.);
#653=ORIENTED_EDGE('',*,*,#525,.F.);
#654=ORIENTED_EDGE('',*,*,#505,.F.);
#655=ORIENTED_EDGE('',*,*,#527,.T.);
#656=ORIENTED_EDGE('',*,*,#528,.T.);
#657=ORIENTED_EDGE('',*,*,#527,.F.);
#658=ORIENTED_EDGE('',*,*,#504,.F.);
#659=ORIENTED_EDGE('',*,*,#529,.T.);
#660=ORIENTED_EDGE('',*,*,#530,.T.);
#661=ORIENTED_EDGE('',*,*,#529,.F.);
#662=ORIENTED_EDGE('',*,*,#503,.F.);
#663=ORIENTED_EDGE('',*,*,#531,.T.);
#664=ORIENTED_EDGE('',*,*,#532,.T.);
#665=ORIENTED_EDGE('',*,*,#531,.F.);
#666=ORIENTED_EDGE('',*,*,#502,.F.);
#667=ORIENTED_EDGE('',*,*,#533,.T.);
#668=ORIENTED_EDGE('',*,*,#534,.T.);
#669=ORIENTED_EDGE('',*,*,#533,.F.);
#670=ORIENTED_EDGE('',*,*,#501,.F.);
#671=ORIENTED_EDGE('',*,*,#535,.T.);
#672=ORIENTED_EDGE('',*,*,#536,.T.);
#673=ORIENTED_EDGE('',*,*,#535,.F.);
#674=ORIENTED_EDGE('',*,*,#500,.F.);
#675=ORIENTED_EDGE('',*,*,#537,.T.);
#676=ORIENTED_EDGE('',*,*,#538,.T.);
#677=ORIENTED_EDGE('',*,*,#537,.F.);
#678=ORIENTED_EDGE('',*,*,#499,.F.);
#679=ORIENTED_EDGE('',*,*,#539,.T.);
#680=ORIENTED_EDGE('',*,*,#540,.T.);
#681=ORIENTED_EDGE('',*,*,#539,.F.);
#682=ORIENTED_EDGE('',*,*,#498,.F.);
#683=ORIENTED_EDGE('',*,*,#541,.T.);
#684=ORIENTED_EDGE('',*,*,#542,.T.);
#685=ORIENTED_EDGE('',*,*,#541,.F.);
#686=ORIENTED_EDGE('',*,*,#497,.F.);
#687=ORIENTED_EDGE('',*,*,#543,.T.);
#688=ORIENTED_EDGE('',*,*,#544,.T.);
#689=ORIENTED_EDGE('',*,*,#543,.F.);
#690=ORIENTED_EDGE('',*,*,#496,.F.);
#691=ORIENTED_EDGE('',*,*,#545,.T.);
#692=ORIENTED_EDGE('',*,*,#546,.T.);
#693=ORIENTED_EDGE('',*,*,#545,.F.);
#694=ORIENTED_EDGE('',*,*,#495,.F.);
#695=ORIENTED_EDGE('',*,*,#547,.T.);
#696=ORIENTED_EDGE('',*,*,#548,.T.);
#697=ORIENTED_EDGE('',*,*,#547,.F.);
#698=ORIENTED_EDGE('',*,*,#494,.F.);
#699=ORIENTED_EDGE('',*,*,#549,.T.);
#700=ORIENTED_EDGE('',*,*,#550,.T.);
#701=ORIENTED_EDGE('',*,*,#549,.F.);
#702=ORIENTED_EDGE('',*,*,#493,.F.);
#703=ORIENTED_EDGE('',*,*,#551,.T.);
#704=ORIENTED_EDGE('',*,*,#552,.T.);
#705=ORIENTED_EDGE('',*,*,#551,.F.);
#706=ORIENTED_EDGE('',*,*,#492,.F.);
#707=ORIENTED_EDGE('',*,*,#553,.T.);
#708=ORIENTED_EDGE('',*,*,#554,.T.);
#709=ORIENTED_EDGE('',*,*,#553,.F.);
#710=ORIENTED_EDGE('',*,*,#491,.F.);
#711=ORIENTED_EDGE('',*,*,#555,.T.);
#712=ORIENTED_EDGE('',*,*,#556,.T.);
#713=ORIENTED_EDGE('',*,*,#555,.F.);
#714=ORIENTED_EDGE('',*,*,#490,.F.);
#715=ORIENTED_EDGE('',*,*,#557,.T.);
#716=ORIENTED_EDGE('',*,*,#558,.T.);
#717=ORIENTED_EDGE('',*,*,#557,.F.);
#718=ORIENTED_EDGE('',*,*,#489,.F.);
#719=ORIENTED_EDGE('',*,*,#559,.T.);
#720=ORIENTED_EDGE('',*,*,#560,.T.);
#721=ORIENTED_EDGE('',*,*,#559,.F.);
#722=ORIENTED_EDGE('',*,*,#488,.F.);
#723=ORIENTED_EDGE('',*,*,#561,.T.);
#724=ORIENTED_EDGE('',*,*,#562,.T.);
#725=ORIENTED_EDGE('',*,*,#561,.F.);
#726=ORIENTED_EDGE('',*,*,#487,.F.);
#727=ORIENTED_EDGE('',*,*,#563,.T.);
#728=ORIENTED_EDGE('',*,*,#564,.T.);
#729=ORIENTED_EDGE('',*,*,#563,.F.);
#730=ORIENTED_EDGE('',*,*,#486,.F.);
#731=ORIENTED_EDGE('',*,*,#565,.T.);
#732=ORIENTED_EDGE('',*,*,#566,.T.);
#733=ORIENTED_EDGE('',*,*,#565,.F.);
#734=ORIENTED_EDGE('',*,*,#567,.F.);
#735=ORIENTED_EDGE('',*,*,#568,.T.);
#736=ORIENTED_EDGE('',*,*,#481,.F.);
#737=ORIENTED_EDGE('',*,*,#475,.F.);
#738=ORIENTED_EDGE('',*,*,#485,.F.);
#739=ORIENTED_EDGE('',*,*,#569,.F.);
#740=ORIENTED_EDGE('',*,*,#570,.F.);
#741=ORIENTED_EDGE('',*,*,#569,.T.);
#742=ORIENTED_EDGE('',*,*,#484,.F.);
#743=ORIENTED_EDGE('',*,*,#512,.F.);
#744=ORIENTED_EDGE('',*,*,#571,.F.);
#745=ORIENTED_EDGE('',*,*,#572,.F.);
#746=ORIENTED_EDGE('',*,*,#571,.T.);
#747=ORIENTED_EDGE('',*,*,#511,.F.);
#748=ORIENTED_EDGE('',*,*,#573,.F.);
#749=ORIENTED_EDGE('',*,*,#574,.F.);
#750=ORIENTED_EDGE('',*,*,#573,.T.);
#751=ORIENTED_EDGE('',*,*,#513,.T.);
#752=ORIENTED_EDGE('',*,*,#516,.F.);
#753=ORIENTED_EDGE('',*,*,#575,.F.);
#754=ORIENTED_EDGE('',*,*,#576,.F.);
#755=ORIENTED_EDGE('',*,*,#575,.T.);
#756=ORIENTED_EDGE('',*,*,#515,.F.);
#757=ORIENTED_EDGE('',*,*,#577,.F.);
#758=ORIENTED_EDGE('',*,*,#578,.F.);
#759=ORIENTED_EDGE('',*,*,#577,.T.);
#760=ORIENTED_EDGE('',*,*,#514,.F.);
#761=ORIENTED_EDGE('',*,*,#480,.T.);
#762=ORIENTED_EDGE('',*,*,#482,.F.);
#763=ORIENTED_EDGE('',*,*,#568,.F.);
#764=ORIENTED_EDGE('',*,*,#578,.T.);
#765=ORIENTED_EDGE('',*,*,#567,.T.);
#766=ORIENTED_EDGE('',*,*,#570,.T.);
#767=ORIENTED_EDGE('',*,*,#572,.T.);
#768=ORIENTED_EDGE('',*,*,#574,.T.);
#769=ORIENTED_EDGE('',*,*,#576,.T.);
#770=ORIENTED_EDGE('',*,*,#566,.F.);
#771=ORIENTED_EDGE('',*,*,#564,.F.);
#772=ORIENTED_EDGE('',*,*,#562,.F.);
#773=ORIENTED_EDGE('',*,*,#560,.F.);
#774=ORIENTED_EDGE('',*,*,#558,.F.);
#775=ORIENTED_EDGE('',*,*,#556,.F.);
#776=ORIENTED_EDGE('',*,*,#554,.F.);
#777=ORIENTED_EDGE('',*,*,#552,.F.);
#778=ORIENTED_EDGE('',*,*,#550,.F.);
#779=ORIENTED_EDGE('',*,*,#548,.F.);
#780=ORIENTED_EDGE('',*,*,#546,.F.);
#781=ORIENTED_EDGE('',*,*,#544,.F.);
#782=ORIENTED_EDGE('',*,*,#542,.F.);
#783=ORIENTED_EDGE('',*,*,#540,.F.);
#784=ORIENTED_EDGE('',*,*,#538,.F.);
#785=ORIENTED_EDGE('',*,*,#536,.F.);
#786=ORIENTED_EDGE('',*,*,#534,.F.);
#787=ORIENTED_EDGE('',*,*,#532,.F.);
#788=ORIENTED_EDGE('',*,*,#530,.F.);
#789=ORIENTED_EDGE('',*,*,#528,.F.);
#790=ORIENTED_EDGE('',*,*,#526,.F.);
#791=ORIENTED_EDGE('',*,*,#524,.F.);
#792=ORIENTED_EDGE('',*,*,#522,.F.);
#793=ORIENTED_EDGE('',*,*,#520,.F.);
#794=ORIENTED_EDGE('',*,*,#518,.F.);
#795=CYLINDRICAL_SURFACE('',#900,5.);
#796=CYLINDRICAL_SURFACE('',#960,1.1);
#797=CYLINDRICAL_SURFACE('',#962,1.1);
#798=CYLINDRICAL_SURFACE('',#964,1.09999999999999);
#799=CYLINDRICAL_SURFACE('',#966,1.1);
#800=CYLINDRICAL_SURFACE('',#968,1.09999999999999);
#801=CYLINDRICAL_SURFACE('',#970,1.1);
#802=CYLINDRICAL_SURFACE('',#972,1.1);
#803=CYLINDRICAL_SURFACE('',#974,1.1);
#804=CYLINDRICAL_SURFACE('',#976,1.1);
#805=CYLINDRICAL_SURFACE('',#978,1.1);
#806=CYLINDRICAL_SURFACE('',#980,1.1);
#807=CYLINDRICAL_SURFACE('',#982,1.1);
#808=CYLINDRICAL_SURFACE('',#984,1.1);
#809=CYLINDRICAL_SURFACE('',#986,1.09999999999999);
#810=CYLINDRICAL_SURFACE('',#988,1.1);
#811=CYLINDRICAL_SURFACE('',#990,1.1);
#812=CYLINDRICAL_SURFACE('',#992,1.1);
#813=CYLINDRICAL_SURFACE('',#994,1.1);
#814=CYLINDRICAL_SURFACE('',#996,1.1);
#815=CYLINDRICAL_SURFACE('',#998,1.1);
#816=CYLINDRICAL_SURFACE('',#1000,1.1);
#817=CYLINDRICAL_SURFACE('',#1002,1.1);
#818=CYLINDRICAL_SURFACE('',#1004,1.1);
#819=CYLINDRICAL_SURFACE('',#1006,1.1);
#820=CYLINDRICAL_SURFACE('',#1008,1.09999999999999);
#821=ADVANCED_FACE('',(#80),#795,.T.);
#822=ADVANCED_FACE('',(#81),#41,.T.);
#823=ADVANCED_FACE('',(#82),#42,.T.);
#824=ADVANCED_FACE('',(#83),#43,.T.);
#825=ADVANCED_FACE('',(#84,#15),#44,.T.);
#826=ADVANCED_FACE('',(#85),#45,.T.);
#827=ADVANCED_FACE('',(#86),#46,.F.);
#828=ADVANCED_FACE('',(#87),#47,.F.);
#829=ADVANCED_FACE('',(#88),#48,.F.);
#830=ADVANCED_FACE('',(#89),#49,.F.);
#831=ADVANCED_FACE('',(#90),#50,.F.);
#832=ADVANCED_FACE('',(#91),#51,.F.);
#833=ADVANCED_FACE('',(#92),#52,.F.);
#834=ADVANCED_FACE('',(#93),#53,.F.);
#835=ADVANCED_FACE('',(#94),#54,.F.);
#836=ADVANCED_FACE('',(#95),#55,.F.);
#837=ADVANCED_FACE('',(#96),#56,.F.);
#838=ADVANCED_FACE('',(#97),#57,.F.);
#839=ADVANCED_FACE('',(#98),#58,.F.);
#840=ADVANCED_FACE('',(#99),#59,.F.);
#841=ADVANCED_FACE('',(#100),#60,.F.);
#842=ADVANCED_FACE('',(#101),#61,.F.);
#843=ADVANCED_FACE('',(#102),#62,.F.);
#844=ADVANCED_FACE('',(#103),#63,.F.);
#845=ADVANCED_FACE('',(#104),#64,.F.);
#846=ADVANCED_FACE('',(#105),#65,.F.);
#847=ADVANCED_FACE('',(#106),#66,.F.);
#848=ADVANCED_FACE('',(#107),#67,.F.);
#849=ADVANCED_FACE('',(#108),#68,.F.);
#850=ADVANCED_FACE('',(#109),#69,.F.);
#851=ADVANCED_FACE('',(#110),#70,.F.);
#852=ADVANCED_FACE('',(#111),#71,.T.);
#853=ADVANCED_FACE('',(#112),#72,.T.);
#854=ADVANCED_FACE('',(#113),#796,.F.);
#855=ADVANCED_FACE('',(#114),#797,.F.);
#856=ADVANCED_FACE('',(#115),#798,.F.);
#857=ADVANCED_FACE('',(#116),#799,.F.);
#858=ADVANCED_FACE('',(#117),#800,.F.);
#859=ADVANCED_FACE('',(#118),#801,.F.);
#860=ADVANCED_FACE('',(#119),#802,.F.);
#861=ADVANCED_FACE('',(#120),#803,.F.);
#862=ADVANCED_FACE('',(#121),#804,.F.);
#863=ADVANCED_FACE('',(#122),#805,.F.);
#864=ADVANCED_FACE('',(#123),#806,.F.);
#865=ADVANCED_FACE('',(#124),#807,.F.);
#866=ADVANCED_FACE('',(#125),#808,.F.);
#867=ADVANCED_FACE('',(#126),#809,.F.);
#868=ADVANCED_FACE('',(#127),#810,.F.);
#869=ADVANCED_FACE('',(#128),#811,.F.);
#870=ADVANCED_FACE('',(#129),#812,.F.);
#871=ADVANCED_FACE('',(#130),#813,.F.);
#872=ADVANCED_FACE('',(#131),#814,.F.);
#873=ADVANCED_FACE('',(#132),#815,.F.);
#874=ADVANCED_FACE('',(#133),#816,.F.);
#875=ADVANCED_FACE('',(#134),#817,.F.);
#876=ADVANCED_FACE('',(#135),#818,.F.);
#877=ADVANCED_FACE('',(#136),#819,.F.);
#878=ADVANCED_FACE('',(#137),#820,.F.);
#879=ADVANCED_FACE('',(#138),#73,.T.);
#880=ADVANCED_FACE('',(#139),#74,.T.);
#881=ADVANCED_FACE('',(#140),#75,.T.);
#882=ADVANCED_FACE('',(#141),#76,.T.);
#883=ADVANCED_FACE('',(#142),#77,.T.);
#884=ADVANCED_FACE('',(#143),#78,.T.);
#885=ADVANCED_FACE('',(#144,#16,#17,#18,#19,#20,#21,#22,#23,#24,#25,#26,
#27,#28,#29,#30,#31,#32,#33,#34,#35,#36,#37,#38,#39,#40),#79,.F.);
#886=CLOSED_SHELL('',(#821,#822,#823,#824,#825,#826,#827,#828,#829,#830,
#831,#832,#833,#834,#835,#836,#837,#838,#839,#840,#841,#842,#843,#844,#845,
#846,#847,#848,#849,#850,#851,#852,#853,#854,#855,#856,#857,#858,#859,#860,
#861,#862,#863,#864,#865,#866,#867,#868,#869,#870,#871,#872,#873,#874,#875,
#876,#877,#878,#879,#880,#881,#882,#883,#884,#885));
#887=DERIVED_UNIT_ELEMENT(#889,1.);
#888=DERIVED_UNIT_ELEMENT(#1559,-3.);
#889=(
MASS_UNIT()
NAMED_UNIT(*)
SI_UNIT(.KILO.,.GRAM.)
);
#890=DERIVED_UNIT((#887,#888));
#891=MEASURE_REPRESENTATION_ITEM('density measure',
POSITIVE_RATIO_MEASURE(7850.),#890);
#892=PROPERTY_DEFINITION_REPRESENTATION(#897,#894);
#893=PROPERTY_DEFINITION_REPRESENTATION(#898,#895);
#894=REPRESENTATION('material name',(#896),#1556);
#895=REPRESENTATION('density',(#891),#1556);
#896=DESCRIPTIVE_REPRESENTATION_ITEM('Steel','Steel');
#897=PROPERTY_DEFINITION('material property','material name',#1566);
#898=PROPERTY_DEFINITION('material property','density of part',#1566);
#899=AXIS2_PLACEMENT_3D('',#1309,#1017,#1018);
#900=AXIS2_PLACEMENT_3D('',#1310,#1019,#1020);
#901=AXIS2_PLACEMENT_3D('',#1312,#1021,#1022);
#902=AXIS2_PLACEMENT_3D('',#1315,#1024,#1025);
#903=AXIS2_PLACEMENT_3D('',#1316,#1026,#1027);
#904=AXIS2_PLACEMENT_3D('',#1317,#1028,#1029);
#905=AXIS2_PLACEMENT_3D('',#1326,#1034,#1035);
#906=AXIS2_PLACEMENT_3D('',#1332,#1039,#1040);
#907=AXIS2_PLACEMENT_3D('',#1336,#1043,#1044);
#908=AXIS2_PLACEMENT_3D('',#1342,#1048,#1049);
#909=AXIS2_PLACEMENT_3D('',#1344,#1050,#1051);
#910=AXIS2_PLACEMENT_3D('',#1345,#1052,#1053);
#911=AXIS2_PLACEMENT_3D('',#1347,#1054,#1055);
#912=AXIS2_PLACEMENT_3D('',#1348,#1056,#1057);
#913=AXIS2_PLACEMENT_3D('',#1350,#1058,#1059);
#914=AXIS2_PLACEMENT_3D('',#1351,#1060,#1061);
#915=AXIS2_PLACEMENT_3D('',#1353,#1062,#1063);
#916=AXIS2_PLACEMENT_3D('',#1354,#1064,#1065);
#917=AXIS2_PLACEMENT_3D('',#1356,#1066,#1067);
#918=AXIS2_PLACEMENT_3D('',#1357,#1068,#1069);
#919=AXIS2_PLACEMENT_3D('',#1359,#1070,#1071);
#920=AXIS2_PLACEMENT_3D('',#1360,#1072,#1073);
#921=AXIS2_PLACEMENT_3D('',#1362,#1074,#1075);
#922=AXIS2_PLACEMENT_3D('',#1363,#1076,#1077);
#923=AXIS2_PLACEMENT_3D('',#1365,#1078,#1079);
#924=AXIS2_PLACEMENT_3D('',#1366,#1080,#1081);
#925=AXIS2_PLACEMENT_3D('',#1368,#1082,#1083);
#926=AXIS2_PLACEMENT_3D('',#1369,#1084,#1085);
#927=AXIS2_PLACEMENT_3D('',#1371,#1086,#1087);
#928=AXIS2_PLACEMENT_3D('',#1372,#1088,#1089);
#929=AXIS2_PLACEMENT_3D('',#1374,#1090,#1091);
#930=AXIS2_PLACEMENT_3D('',#1375,#1092,#1093);
#931=AXIS2_PLACEMENT_3D('',#1377,#1094,#1095);
#932=AXIS2_PLACEMENT_3D('',#1378,#1096,#1097);
#933=AXIS2_PLACEMENT_3D('',#1380,#1098,#1099);
#934=AXIS2_PLACEMENT_3D('',#1381,#1100,#1101);
#935=AXIS2_PLACEMENT_3D('',#1383,#1102,#1103);
#936=AXIS2_PLACEMENT_3D('',#1384,#1104,#1105);
#937=AXIS2_PLACEMENT_3D('',#1386,#1106,#1107);
#938=AXIS2_PLACEMENT_3D('',#1387,#1108,#1109);
#939=AXIS2_PLACEMENT_3D('',#1389,#1110,#1111);
#940=AXIS2_PLACEMENT_3D('',#1390,#1112,#1113);
#941=AXIS2_PLACEMENT_3D('',#1392,#1114,#1115);
#942=AXIS2_PLACEMENT_3D('',#1393,#1116,#1117);
#943=AXIS2_PLACEMENT_3D('',#1395,#1118,#1119);
#944=AXIS2_PLACEMENT_3D('',#1396,#1120,#1121);
#945=AXIS2_PLACEMENT_3D('',#1398,#1122,#1123);
#946=AXIS2_PLACEMENT_3D('',#1399,#1124,#1125);
#947=AXIS2_PLACEMENT_3D('',#1401,#1126,#1127);
#948=AXIS2_PLACEMENT_3D('',#1402,#1128,#1129);
#949=AXIS2_PLACEMENT_3D('',#1404,#1130,#1131);
#950=AXIS2_PLACEMENT_3D('',#1405,#1132,#1133);
#951=AXIS2_PLACEMENT_3D('',#1407,#1134,#1135);
#952=AXIS2_PLACEMENT_3D('',#1408,#1136,#1137);
#953=AXIS2_PLACEMENT_3D('',#1410,#1138,#1139);
#954=AXIS2_PLACEMENT_3D('',#1411,#1140,#1141);
#955=AXIS2_PLACEMENT_3D('',#1413,#1142,#1143);
#956=AXIS2_PLACEMENT_3D('',#1414,#1144,#1145);
#957=AXIS2_PLACEMENT_3D('',#1416,#1146,#1147);
#958=AXIS2_PLACEMENT_3D('',#1417,#1148,#1149);
#959=AXIS2_PLACEMENT_3D('',#1423,#1153,#1154);
#960=AXIS2_PLACEMENT_3D('',#1429,#1158,#1159);
#961=AXIS2_PLACEMENT_3D('',#1432,#1161,#1162);
#962=AXIS2_PLACEMENT_3D('',#1433,#1163,#1164);
#963=AXIS2_PLACEMENT_3D('',#1436,#1166,#1167);
#964=AXIS2_PLACEMENT_3D('',#1437,#1168,#1169);
#965=AXIS2_PLACEMENT_3D('',#1440,#1171,#1172);
#966=AXIS2_PLACEMENT_3D('',#1441,#1173,#1174);
#967=AXIS2_PLACEMENT_3D('',#1444,#1176,#1177);
#968=AXIS2_PLACEMENT_3D('',#1445,#1178,#1179);
#969=AXIS2_PLACEMENT_3D('',#1448,#1181,#1182);
#970=AXIS2_PLACEMENT_3D('',#1449,#1183,#1184);
#971=AXIS2_PLACEMENT_3D('',#1452,#1186,#1187);
#972=AXIS2_PLACEMENT_3D('',#1453,#1188,#1189);
#973=AXIS2_PLACEMENT_3D('',#1456,#1191,#1192);
#974=AXIS2_PLACEMENT_3D('',#1457,#1193,#1194);
#975=AXIS2_PLACEMENT_3D('',#1460,#1196,#1197);
#976=AXIS2_PLACEMENT_3D('',#1461,#1198,#1199);
#977=AXIS2_PLACEMENT_3D('',#1464,#1201,#1202);
#978=AXIS2_PLACEMENT_3D('',#1465,#1203,#1204);
#979=AXIS2_PLACEMENT_3D('',#1468,#1206,#1207);
#980=AXIS2_PLACEMENT_3D('',#1469,#1208,#1209);
#981=AXIS2_PLACEMENT_3D('',#1472,#1211,#1212);
#982=AXIS2_PLACEMENT_3D('',#1473,#1213,#1214);
#983=AXIS2_PLACEMENT_3D('',#1476,#1216,#1217);
#984=AXIS2_PLACEMENT_3D('',#1477,#1218,#1219);
#985=AXIS2_PLACEMENT_3D('',#1480,#1221,#1222);
#986=AXIS2_PLACEMENT_3D('',#1481,#1223,#1224);
#987=AXIS2_PLACEMENT_3D('',#1484,#1226,#1227);
#988=AXIS2_PLACEMENT_3D('',#1485,#1228,#1229);
#989=AXIS2_PLACEMENT_3D('',#1488,#1231,#1232);
#990=AXIS2_PLACEMENT_3D('',#1489,#1233,#1234);
#991=AXIS2_PLACEMENT_3D('',#1492,#1236,#1237);
#992=AXIS2_PLACEMENT_3D('',#1493,#1238,#1239);
#993=AXIS2_PLACEMENT_3D('',#1496,#1241,#1242);
#994=AXIS2_PLACEMENT_3D('',#1497,#1243,#1244);
#995=AXIS2_PLACEMENT_3D('',#1500,#1246,#1247);
#996=AXIS2_PLACEMENT_3D('',#1501,#1248,#1249);
#997=AXIS2_PLACEMENT_3D('',#1504,#1251,#1252);
#998=AXIS2_PLACEMENT_3D('',#1505,#1253,#1254);
#999=AXIS2_PLACEMENT_3D('',#1508,#1256,#1257);
#1000=AXIS2_PLACEMENT_3D('',#1509,#1258,#1259);
#1001=AXIS2_PLACEMENT_3D('',#1512,#1261,#1262);
#1002=AXIS2_PLACEMENT_3D('',#1513,#1263,#1264);
#1003=AXIS2_PLACEMENT_3D('',#1516,#1266,#1267);
#1004=AXIS2_PLACEMENT_3D('',#1517,#1268,#1269);
#1005=AXIS2_PLACEMENT_3D('',#1520,#1271,#1272);
#1006=AXIS2_PLACEMENT_3D('',#1521,#1273,#1274);
#1007=AXIS2_PLACEMENT_3D('',#1524,#1276,#1277);
#1008=AXIS2_PLACEMENT_3D('',#1525,#1278,#1279);
#1009=AXIS2_PLACEMENT_3D('',#1528,#1281,#1282);
#1010=AXIS2_PLACEMENT_3D('',#1529,#1283,#1284);
#1011=AXIS2_PLACEMENT_3D('',#1535,#1288,#1289);
#1012=AXIS2_PLACEMENT_3D('',#1539,#1292,#1293);
#1013=AXIS2_PLACEMENT_3D('',#1543,#1296,#1297);
#1014=AXIS2_PLACEMENT_3D('',#1547,#1300,#1301);
#1015=AXIS2_PLACEMENT_3D('',#1551,#1304,#1305);
#1016=AXIS2_PLACEMENT_3D('',#1553,#1307,#1308);
#1017=DIRECTION('axis',(0.,0.,1.));
#1018=DIRECTION('refdir',(1.,0.,0.));
#1019=DIRECTION('center_axis',(0.,0.,1.));
#1020=DIRECTION('ref_axis',(-1.,0.,0.));
#1021=DIRECTION('center_axis',(0.,0.,1.));
#1022=DIRECTION('ref_axis',(-1.,0.,0.));
#1023=DIRECTION('',(0.,0.,-1.));
#1024=DIRECTION('center_axis',(0.,0.,-1.));
#1025=DIRECTION('ref_axis',(-1.,0.,0.));
#1026=DIRECTION('center_axis',(0.,0.,1.));
#1027=DIRECTION('ref_axis',(-1.,0.,0.));
#1028=DIRECTION('center_axis',(0.,1.,0.));
#1029=DIRECTION('ref_axis',(-1.,0.,0.));
#1030=DIRECTION('',(1.,0.,0.));
#1031=DIRECTION('',(0.,0.,1.));
#1032=DIRECTION('',(-1.,0.,0.));
#1033=DIRECTION('',(0.,0.,1.));
#1034=DIRECTION('center_axis',(1.,0.,0.));
#1035=DIRECTION('ref_axis',(0.,1.,0.));
#1036=DIRECTION('',(0.,-1.,0.));
#1037=DIRECTION('',(0.,1.,0.));
#1038=DIRECTION('',(0.,0.,1.));
#1039=DIRECTION('center_axis',(0.,0.,1.));
#1040=DIRECTION('ref_axis',(1.,0.,0.));
#1041=DIRECTION('',(0.,-1.,0.));
#1042=DIRECTION('',(1.,0.,0.));
#1043=DIRECTION('center_axis',(0.,0.,1.));
#1044=DIRECTION('ref_axis',(1.,0.,0.));
#1045=DIRECTION('',(5.82308986215215E-9,1.,0.));
#1046=DIRECTION('',(-1.,0.,0.));
#1047=DIRECTION('',(0.,-1.,0.));
#1048=DIRECTION('center_axis',(0.,0.,1.));
#1049=DIRECTION('ref_axis',(-1.,0.,0.));
#1050=DIRECTION('center_axis',(0.,0.,-1.));
#1051=DIRECTION('ref_axis',(1.,0.,0.));
#1052=DIRECTION('center_axis',(0.,0.,1.));
#1053=DIRECTION('ref_axis',(-1.,0.,0.));
#1054=DIRECTION('center_axis',(0.,0.,-1.));
#1055=DIRECTION('ref_axis',(1.,0.,0.));
#1056=DIRECTION('center_axis',(0.,0.,1.));
#1057=DIRECTION('ref_axis',(-1.,0.,0.));
#1058=DIRECTION('center_axis',(0.,0.,-1.));
#1059=DIRECTION('ref_axis',(1.,0.,0.));
#1060=DIRECTION('center_axis',(0.,0.,1.));
#1061=DIRECTION('ref_axis',(-1.,0.,0.));
#1062=DIRECTION('center_axis',(0.,0.,-1.));
#1063=DIRECTION('ref_axis',(1.,0.,0.));
#1064=DIRECTION('center_axis',(0.,0.,1.));
#1065=DIRECTION('ref_axis',(-1.,0.,0.));
#1066=DIRECTION('center_axis',(0.,0.,-1.));
#1067=DIRECTION('ref_axis',(1.,0.,0.));
#1068=DIRECTION('center_axis',(0.,0.,1.));
#1069=DIRECTION('ref_axis',(-1.,0.,0.));
#1070=DIRECTION('center_axis',(0.,0.,-1.));
#1071=DIRECTION('ref_axis',(1.,0.,0.));
#1072=DIRECTION('center_axis',(0.,0.,1.));
#1073=DIRECTION('ref_axis',(-1.,0.,0.));
#1074=DIRECTION('center_axis',(0.,0.,-1.));
#1075=DIRECTION('ref_axis',(1.,0.,0.));
#1076=DIRECTION('center_axis',(0.,0.,1.));
#1077=DIRECTION('ref_axis',(-1.,0.,0.));
#1078=DIRECTION('center_axis',(0.,0.,-1.));
#1079=DIRECTION('ref_axis',(1.,0.,0.));
#1080=DIRECTION('center_axis',(0.,0.,1.));
#1081=DIRECTION('ref_axis',(-1.,0.,0.));
#1082=DIRECTION('center_axis',(0.,0.,-1.));
#1083=DIRECTION('ref_axis',(1.,0.,0.));
#1084=DIRECTION('center_axis',(0.,0.,1.));
#1085=DIRECTION('ref_axis',(-1.,0.,0.));
#1086=DIRECTION('center_axis',(0.,0.,-1.));
#1087=DIRECTION('ref_axis',(1.,0.,0.));
#1088=DIRECTION('center_axis',(0.,0.,1.));
#1089=DIRECTION('ref_axis',(-1.,0.,0.));
#1090=DIRECTION('center_axis',(0.,0.,-1.));
#1091=DIRECTION('ref_axis',(1.,0.,0.));
#1092=DIRECTION('center_axis',(0.,0.,1.));
#1093=DIRECTION('ref_axis',(-1.,0.,0.));
#1094=DIRECTION('center_axis',(0.,0.,-1.));
#1095=DIRECTION('ref_axis',(1.,0.,0.));
#1096=DIRECTION('center_axis',(0.,0.,1.));
#1097=DIRECTION('ref_axis',(-1.,0.,0.));
#1098=DIRECTION('center_axis',(0.,0.,-1.));
#1099=DIRECTION('ref_axis',(1.,0.,0.));
#1100=DIRECTION('center_axis',(0.,0.,1.));
#1101=DIRECTION('ref_axis',(-1.,0.,0.));
#1102=DIRECTION('center_axis',(0.,0.,-1.));
#1103=DIRECTION('ref_axis',(1.,0.,0.));
#1104=DIRECTION('center_axis',(0.,0.,1.));
#1105=DIRECTION('ref_axis',(-1.,0.,0.));
#1106=DIRECTION('center_axis',(0.,0.,-1.));
#1107=DIRECTION('ref_axis',(1.,0.,0.));
#1108=DIRECTION('center_axis',(0.,0.,1.));
#1109=DIRECTION('ref_axis',(-1.,0.,0.));
#1110=DIRECTION('center_axis',(0.,0.,-1.));
#1111=DIRECTION('ref_axis',(1.,0.,0.));
#1112=DIRECTION('center_axis',(0.,0.,1.));
#1113=DIRECTION('ref_axis',(-1.,0.,0.));
#1114=DIRECTION('center_axis',(0.,0.,-1.));
#1115=DIRECTION('ref_axis',(1.,0.,0.));
#1116=DIRECTION('center_axis',(0.,0.,1.));
#1117=DIRECTION('ref_axis',(-1.,0.,0.));
#1118=DIRECTION('center_axis',(0.,0.,-1.));
#1119=DIRECTION('ref_axis',(1.,0.,0.));
#1120=DIRECTION('center_axis',(0.,0.,1.));
#1121=DIRECTION('ref_axis',(-1.,0.,0.));
#1122=DIRECTION('center_axis',(0.,0.,-1.));
#1123=DIRECTION('ref_axis',(1.,0.,0.));
#1124=DIRECTION('center_axis',(0.,0.,1.));
#1125=DIRECTION('ref_axis',(-1.,0.,0.));
#1126=DIRECTION('center_axis',(0.,0.,-1.));
#1127=DIRECTION('ref_axis',(1.,0.,0.));
#1128=DIRECTION('center_axis',(0.,0.,1.));
#1129=DIRECTION('ref_axis',(-1.,0.,0.));
#1130=DIRECTION('center_axis',(0.,0.,-1.));
#1131=DIRECTION('ref_axis',(1.,0.,0.));
#1132=DIRECTION('center_axis',(0.,0.,1.));
#1133=DIRECTION('ref_axis',(-1.,0.,0.));
#1134=DIRECTION('center_axis',(0.,0.,-1.));
#1135=DIRECTION('ref_axis',(1.,0.,0.));
#1136=DIRECTION('center_axis',(0.,0.,1.));
#1137=DIRECTION('ref_axis',(-1.,0.,0.));
#1138=DIRECTION('center_axis',(0.,0.,-1.));
#1139=DIRECTION('ref_axis',(1.,0.,0.));
#1140=DIRECTION('center_axis',(0.,0.,1.));
#1141=DIRECTION('ref_axis',(-1.,0.,0.));
#1142=DIRECTION('center_axis',(0.,0.,-1.));
#1143=DIRECTION('ref_axis',(1.,0.,0.));
#1144=DIRECTION('center_axis',(0.,0.,1.));
#1145=DIRECTION('ref_axis',(-1.,0.,0.));
#1146=DIRECTION('center_axis',(0.,0.,-1.));
#1147=DIRECTION('ref_axis',(1.,0.,0.));
#1148=DIRECTION('center_axis',(1.,-5.82308986215215E-9,0.));
#1149=DIRECTION('ref_axis',(5.82308986215215E-9,1.,0.));
#1150=DIRECTION('',(4.62592926927149E-18,1.,0.));
#1151=DIRECTION('',(0.,0.,1.));
#1152=DIRECTION('',(0.,0.,1.));
#1153=DIRECTION('center_axis',(0.,0.,1.));
#1154=DIRECTION('ref_axis',(1.,0.,0.));
#1155=DIRECTION('',(1.,0.,0.));
#1156=DIRECTION('',(0.,1.,0.));
#1157=DIRECTION('',(-1.,0.,0.));
#1158=DIRECTION('center_axis',(0.,0.,1.));
#1159=DIRECTION('ref_axis',(1.,0.,0.));
#1160=DIRECTION('',(0.,0.,-1.));
#1161=DIRECTION('center_axis',(0.,0.,-1.));
#1162=DIRECTION('ref_axis',(1.,0.,0.));
#1163=DIRECTION('center_axis',(0.,0.,1.));
#1164=DIRECTION('ref_axis',(1.,0.,0.));
#1165=DIRECTION('',(0.,0.,-1.));
#1166=DIRECTION('center_axis',(0.,0.,-1.));
#1167=DIRECTION('ref_axis',(1.,0.,0.));
#1168=DIRECTION('center_axis',(0.,0.,1.));
#1169=DIRECTION('ref_axis',(1.,0.,0.));
#1170=DIRECTION('',(0.,0.,-1.));
#1171=DIRECTION('center_axis',(0.,0.,-1.));
#1172=DIRECTION('ref_axis',(1.,0.,0.));
#1173=DIRECTION('center_axis',(0.,0.,1.));
#1174=DIRECTION('ref_axis',(1.,0.,0.));
#1175=DIRECTION('',(0.,0.,-1.));
#1176=DIRECTION('center_axis',(0.,0.,-1.));
#1177=DIRECTION('ref_axis',(1.,0.,0.));
#1178=DIRECTION('center_axis',(0.,0.,1.));
#1179=DIRECTION('ref_axis',(1.,0.,0.));
#1180=DIRECTION('',(0.,0.,-1.));
#1181=DIRECTION('center_axis',(0.,0.,-1.));
#1182=DIRECTION('ref_axis',(1.,0.,0.));
#1183=DIRECTION('center_axis',(0.,0.,1.));
#1184=DIRECTION('ref_axis',(1.,0.,0.));
#1185=DIRECTION('',(0.,0.,-1.));
#1186=DIRECTION('center_axis',(0.,0.,-1.));
#1187=DIRECTION('ref_axis',(1.,0.,0.));
#1188=DIRECTION('center_axis',(0.,0.,1.));
#1189=DIRECTION('ref_axis',(1.,0.,0.));
#1190=DIRECTION('',(0.,0.,-1.));
#1191=DIRECTION('center_axis',(0.,0.,-1.));
#1192=DIRECTION('ref_axis',(1.,0.,0.));
#1193=DIRECTION('center_axis',(0.,0.,1.));
#1194=DIRECTION('ref_axis',(1.,0.,0.));
#1195=DIRECTION('',(0.,0.,-1.));
#1196=DIRECTION('center_axis',(0.,0.,-1.));
#1197=DIRECTION('ref_axis',(1.,0.,0.));
#1198=DIRECTION('center_axis',(0.,0.,1.));
#1199=DIRECTION('ref_axis',(1.,0.,0.));
#1200=DIRECTION('',(0.,0.,-1.));
#1201=DIRECTION('center_axis',(0.,0.,-1.));
#1202=DIRECTION('ref_axis',(1.,0.,0.));
#1203=DIRECTION('center_axis',(0.,0.,1.));
#1204=DIRECTION('ref_axis',(1.,0.,0.));
#1205=DIRECTION('',(0.,0.,-1.));
#1206=DIRECTION('center_axis',(0.,0.,-1.));
#1207=DIRECTION('ref_axis',(1.,0.,0.));
#1208=DIRECTION('center_axis',(0.,0.,1.));
#1209=DIRECTION('ref_axis',(1.,0.,0.));
#1210=DIRECTION('',(0.,0.,-1.));
#1211=DIRECTION('center_axis',(0.,0.,-1.));
#1212=DIRECTION('ref_axis',(1.,0.,0.));
#1213=DIRECTION('center_axis',(0.,0.,1.));
#1214=DIRECTION('ref_axis',(1.,0.,0.));
#1215=DIRECTION('',(0.,0.,-1.));
#1216=DIRECTION('center_axis',(0.,0.,-1.));
#1217=DIRECTION('ref_axis',(1.,0.,0.));
#1218=DIRECTION('center_axis',(0.,0.,1.));
#1219=DIRECTION('ref_axis',(1.,0.,0.));
#1220=DIRECTION('',(0.,0.,-1.));
#1221=DIRECTION('center_axis',(0.,0.,-1.));
#1222=DIRECTION('ref_axis',(1.,0.,0.));
#1223=DIRECTION('center_axis',(0.,0.,1.));
#1224=DIRECTION('ref_axis',(1.,0.,0.));
#1225=DIRECTION('',(0.,0.,-1.));
#1226=DIRECTION('center_axis',(0.,0.,-1.));
#1227=DIRECTION('ref_axis',(1.,0.,0.));
#1228=DIRECTION('center_axis',(0.,0.,1.));
#1229=DIRECTION('ref_axis',(1.,0.,0.));
#1230=DIRECTION('',(0.,0.,-1.));
#1231=DIRECTION('center_axis',(0.,0.,-1.));
#1232=DIRECTION('ref_axis',(1.,0.,0.));
#1233=DIRECTION('center_axis',(0.,0.,1.));
#1234=DIRECTION('ref_axis',(1.,0.,0.));
#1235=DIRECTION('',(0.,0.,-1.));
#1236=DIRECTION('center_axis',(0.,0.,-1.));
#1237=DIRECTION('ref_axis',(1.,0.,0.));
#1238=DIRECTION('center_axis',(0.,0.,1.));
#1239=DIRECTION('ref_axis',(1.,0.,0.));
#1240=DIRECTION('',(0.,0.,-1.));
#1241=DIRECTION('center_axis',(0.,0.,-1.));
#1242=DIRECTION('ref_axis',(1.,0.,0.));
#1243=DIRECTION('center_axis',(0.,0.,1.));
#1244=DIRECTION('ref_axis',(1.,0.,0.));
#1245=DIRECTION('',(0.,0.,-1.));
#1246=DIRECTION('center_axis',(0.,0.,-1.));
#1247=DIRECTION('ref_axis',(1.,0.,0.));
#1248=DIRECTION('center_axis',(0.,0.,1.));
#1249=DIRECTION('ref_axis',(1.,0.,0.));
#1250=DIRECTION('',(0.,0.,-1.));
#1251=DIRECTION('center_axis',(0.,0.,-1.));
#1252=DIRECTION('ref_axis',(1.,0.,0.));
#1253=DIRECTION('center_axis',(0.,0.,1.));
#1254=DIRECTION('ref_axis',(1.,0.,0.));
#1255=DIRECTION('',(0.,0.,-1.));
#1256=DIRECTION('center_axis',(0.,0.,-1.));
#1257=DIRECTION('ref_axis',(1.,0.,0.));
#1258=DIRECTION('center_axis',(0.,0.,1.));
#1259=DIRECTION('ref_axis',(1.,0.,0.));
#1260=DIRECTION('',(0.,0.,-1.));
#1261=DIRECTION('center_axis',(0.,0.,-1.));
#1262=DIRECTION('ref_axis',(1.,0.,0.));
#1263=DIRECTION('center_axis',(0.,0.,1.));
#1264=DIRECTION('ref_axis',(1.,0.,0.));
#1265=DIRECTION('',(0.,0.,-1.));
#1266=DIRECTION('center_axis',(0.,0.,-1.));
#1267=DIRECTION('ref_axis',(1.,0.,0.));
#1268=DIRECTION('center_axis',(0.,0.,1.));
#1269=DIRECTION('ref_axis',(1.,0.,0.));
#1270=DIRECTION('',(0.,0.,-1.));
#1271=DIRECTION('center_axis',(0.,0.,-1.));
#1272=DIRECTION('ref_axis',(1.,0.,0.));
#1273=DIRECTION('center_axis',(0.,0.,1.));
#1274=DIRECTION('ref_axis',(1.,0.,0.));
#1275=DIRECTION('',(0.,0.,-1.));
#1276=DIRECTION('center_axis',(0.,0.,-1.));
#1277=DIRECTION('ref_axis',(1.,0.,0.));
#1278=DIRECTION('center_axis',(0.,0.,1.));
#1279=DIRECTION('ref_axis',(1.,0.,0.));
#1280=DIRECTION('',(0.,0.,-1.));
#1281=DIRECTION('center_axis',(0.,0.,-1.));
#1282=DIRECTION('ref_axis',(1.,0.,0.));
#1283=DIRECTION('center_axis',(-1.,1.85037170770859E-17,0.));
#1284=DIRECTION('ref_axis',(-1.85037170770859E-17,-1.,0.));
#1285=DIRECTION('',(1.85037170770859E-17,1.,0.));
#1286=DIRECTION('',(0.,0.,1.));
#1287=DIRECTION('',(0.,0.,1.));
#1288=DIRECTION('center_axis',(0.,1.,0.));
#1289=DIRECTION('ref_axis',(-1.,0.,0.));
#1290=DIRECTION('',(1.,0.,0.));
#1291=DIRECTION('',(0.,0.,1.));
#1292=DIRECTION('center_axis',(1.,-4.62592926927149E-18,0.));
#1293=DIRECTION('ref_axis',(4.62592926927149E-18,1.,0.));
#1294=DIRECTION('',(-4.62592926927149E-18,-1.,0.));
#1295=DIRECTION('',(0.,0.,1.));
#1296=DIRECTION('center_axis',(0.,1.,0.));
#1297=DIRECTION('ref_axis',(-1.,0.,0.));
#1298=DIRECTION('',(1.,0.,0.));
#1299=DIRECTION('',(0.,0.,1.));
#1300=DIRECTION('center_axis',(1.,0.,0.));
#1301=DIRECTION('ref_axis',(0.,1.,0.));
#1302=DIRECTION('',(0.,-1.,0.));
#1303=DIRECTION('',(0.,0.,1.));
#1304=DIRECTION('center_axis',(0.,-1.,0.));
#1305=DIRECTION('ref_axis',(1.,0.,0.));
#1306=DIRECTION('',(-1.,0.,0.));
#1307=DIRECTION('center_axis',(0.,0.,1.));
#1308=DIRECTION('ref_axis',(1.,0.,0.));
#1309=CARTESIAN_POINT('',(0.,0.,0.));
#1310=CARTESIAN_POINT('Origin',(-2.50000062426498,-6.50000024586916,240.));
#1311=CARTESIAN_POINT('',(2.49999937573502,-6.50000024586916,250.));
#1312=CARTESIAN_POINT('Origin',(-2.50000062426498,-6.50000024586916,250.));
#1313=CARTESIAN_POINT('',(2.49999937573502,-6.50000024586916,240.));
#1314=CARTESIAN_POINT('',(2.49999937573502,-6.50000024586916,240.));
#1315=CARTESIAN_POINT('Origin',(-2.50000062426498,-6.50000024586916,240.));
#1316=CARTESIAN_POINT('Origin',(-2.50000062426498,-6.50000024586916,250.));
#1317=CARTESIAN_POINT('Origin',(4.99999937573502,0.999999716877937,25.));
#1318=CARTESIAN_POINT('',(-10.000000624265,0.999999716877937,25.));
#1319=CARTESIAN_POINT('',(4.99999937573502,0.999999716877937,25.));
#1320=CARTESIAN_POINT('',(31.249999375735,0.999999716877937,25.));
#1321=CARTESIAN_POINT('',(-10.000000624265,0.999999716877937,240.));
#1322=CARTESIAN_POINT('',(-10.000000624265,0.999999716877937,25.));
#1323=CARTESIAN_POINT('',(4.99999937573502,0.999999716877937,240.));
#1324=CARTESIAN_POINT('',(4.99999937573502,0.999999716877937,240.));
#1325=CARTESIAN_POINT('',(4.99999937573502,0.999999716877937,25.));
#1326=CARTESIAN_POINT('Origin',(4.99999937573502,-14.0000002086163,25.));
#1327=CARTESIAN_POINT('',(4.99999937573502,-14.0000002086163,25.));
#1328=CARTESIAN_POINT('',(4.99999937573502,19.7499997541308,25.));
#1329=CARTESIAN_POINT('',(4.99999937573502,-14.0000002086163,240.));
#1330=CARTESIAN_POINT('',(4.99999937573502,-14.0000002086163,240.));
#1331=CARTESIAN_POINT('',(4.99999937573502,-14.0000002086163,25.));
#1332=CARTESIAN_POINT('Origin',(-2.50000062426498,-6.50000024586916,240.));
#1333=CARTESIAN_POINT('',(-10.000000624265,-14.0000002086163,240.));
#1334=CARTESIAN_POINT('',(-10.000000624265,0.999999716877937,240.));
#1335=CARTESIAN_POINT('',(-10.000000624265,-14.0000002086163,240.));
#1336=CARTESIAN_POINT('Origin',(57.499999375735,53.4999997168779,25.));
#1337=CARTESIAN_POINT('',(5.00000007450581,120.999999716878,25.));
#1338=CARTESIAN_POINT('',(5.00000007450581,120.999999716878,25.));
#1339=CARTESIAN_POINT('',(-10.000000624265,120.999999716878,25.));
#1340=CARTESIAN_POINT('',(-10.000000624265,120.999999716878,25.));
#1341=CARTESIAN_POINT('',(-10.000000624265,-14.0000002086163,25.));
#1342=CARTESIAN_POINT('Origin',(57.499999375735,53.4999997168779,24.));
#1343=CARTESIAN_POINT('',(106.399999375735,-6.50000028312206,24.));
#1344=CARTESIAN_POINT('Origin',(107.499999375735,-6.50000028312206,24.));
#1345=CARTESIAN_POINT('Origin',(57.499999375735,53.4999997168779,24.));
#1346=CARTESIAN_POINT('',(-3.60000062426499,3.49999971687794,24.));
#1347=CARTESIAN_POINT('Origin',(-2.50000062426499,3.49999971687794,24.));
#1348=CARTESIAN_POINT('Origin',(57.499999375735,53.4999997168779,24.));
#1349=CARTESIAN_POINT('',(6.39999937573501,-6.50000028312206,24.));
#1350=CARTESIAN_POINT('Origin',(7.49999937573501,-6.50000028312206,24.));
#1351=CARTESIAN_POINT('Origin',(57.499999375735,53.4999997168779,24.));
#1352=CARTESIAN_POINT('',(46.399999375735,-6.50000028312206,24.));
#1353=CARTESIAN_POINT('Origin',(47.499999375735,-6.50000028312206,24.));
#1354=CARTESIAN_POINT('Origin',(57.499999375735,53.4999997168779,24.));
#1355=CARTESIAN_POINT('',(-3.60000062426499,13.4999997168779,24.));
#1356=CARTESIAN_POINT('Origin',(-2.50000062426499,13.4999997168779,24.));
#1357=CARTESIAN_POINT('Origin',(57.499999375735,53.4999997168779,24.));
#1358=CARTESIAN_POINT('',(76.399999375735,-6.50000028312206,24.));
#1359=CARTESIAN_POINT('Origin',(77.499999375735,-6.50000028312206,24.));
#1360=CARTESIAN_POINT('Origin',(57.499999375735,53.4999997168779,24.));
#1361=CARTESIAN_POINT('',(16.399999375735,-6.50000028312206,24.));
#1362=CARTESIAN_POINT('Origin',(17.499999375735,-6.50000028312206,24.));
#1363=CARTESIAN_POINT('Origin',(57.499999375735,53.4999997168779,24.));
#1364=CARTESIAN_POINT('',(-3.60000062426499,83.4999997168779,24.));
#1365=CARTESIAN_POINT('Origin',(-2.50000062426499,83.4999997168779,24.));
#1366=CARTESIAN_POINT('Origin',(57.499999375735,53.4999997168779,24.));
#1367=CARTESIAN_POINT('',(-3.60000062426499,103.499999716878,24.));
#1368=CARTESIAN_POINT('Origin',(-2.50000062426499,103.499999716878,24.));
#1369=CARTESIAN_POINT('Origin',(57.499999375735,53.4999997168779,24.));
#1370=CARTESIAN_POINT('',(-3.60000062426499,43.4999997168779,24.));
#1371=CARTESIAN_POINT('Origin',(-2.50000062426499,43.4999997168779,24.));
#1372=CARTESIAN_POINT('Origin',(57.499999375735,53.4999997168779,24.));
#1373=CARTESIAN_POINT('',(-3.60000062426499,73.4999997168779,24.));
#1374=CARTESIAN_POINT('Origin',(-2.50000062426499,73.4999997168779,24.));
#1375=CARTESIAN_POINT('Origin',(57.499999375735,53.4999997168779,24.));
#1376=CARTESIAN_POINT('',(116.399999375735,-6.50000028312206,24.));
#1377=CARTESIAN_POINT('Origin',(117.499999375735,-6.50000028312206,24.));
#1378=CARTESIAN_POINT('Origin',(57.499999375735,53.4999997168779,24.));
#1379=CARTESIAN_POINT('',(-3.60000062426499,63.4999997168779,24.));
#1380=CARTESIAN_POINT('Origin',(-2.50000062426499,63.4999997168779,24.));
#1381=CARTESIAN_POINT('Origin',(57.499999375735,53.4999997168779,24.));
#1382=CARTESIAN_POINT('',(-3.60000062426499,23.4999997168779,24.));
#1383=CARTESIAN_POINT('Origin',(-2.50000062426499,23.4999997168779,24.));
#1384=CARTESIAN_POINT('Origin',(57.499999375735,53.4999997168779,24.));
#1385=CARTESIAN_POINT('',(-3.60000062426499,53.4999997168779,24.));
#1386=CARTESIAN_POINT('Origin',(-2.50000062426499,53.4999997168779,24.));
#1387=CARTESIAN_POINT('Origin',(57.499999375735,53.4999997168779,24.));
#1388=CARTESIAN_POINT('',(-3.60000062426499,113.499999716878,24.));
#1389=CARTESIAN_POINT('Origin',(-2.50000062426499,113.499999716878,24.));
#1390=CARTESIAN_POINT('Origin',(57.499999375735,53.4999997168779,24.));
#1391=CARTESIAN_POINT('',(-3.60000062426499,33.4999997168779,24.));
#1392=CARTESIAN_POINT('Origin',(-2.50000062426499,33.4999997168779,24.));
#1393=CARTESIAN_POINT('Origin',(57.499999375735,53.4999997168779,24.));
#1394=CARTESIAN_POINT('',(-3.60000062426499,93.4999997168779,24.));
#1395=CARTESIAN_POINT('Origin',(-2.50000062426499,93.4999997168779,24.));
#1396=CARTESIAN_POINT('Origin',(57.499999375735,53.4999997168779,24.));
#1397=CARTESIAN_POINT('',(66.399999375735,-6.50000028312206,24.));
#1398=CARTESIAN_POINT('Origin',(67.499999375735,-6.50000028312206,24.));
#1399=CARTESIAN_POINT('Origin',(57.499999375735,53.4999997168779,24.));
#1400=CARTESIAN_POINT('',(56.399999375735,-6.50000028312206,24.));
#1401=CARTESIAN_POINT('Origin',(57.499999375735,-6.50000028312206,24.));
#1402=CARTESIAN_POINT('Origin',(57.499999375735,53.4999997168779,24.));
#1403=CARTESIAN_POINT('',(86.399999375735,-6.50000028312206,24.));
#1404=CARTESIAN_POINT('Origin',(87.499999375735,-6.50000028312206,24.));
#1405=CARTESIAN_POINT('Origin',(57.499999375735,53.4999997168779,24.));
#1406=CARTESIAN_POINT('',(26.399999375735,-6.50000028312206,24.));
#1407=CARTESIAN_POINT('Origin',(27.499999375735,-6.50000028312206,24.));
#1408=CARTESIAN_POINT('Origin',(57.499999375735,53.4999997168779,24.));
#1409=CARTESIAN_POINT('',(96.399999375735,-6.50000028312206,24.));
#1410=CARTESIAN_POINT('Origin',(97.499999375735,-6.50000028312206,24.));
#1411=CARTESIAN_POINT('Origin',(57.499999375735,53.4999997168779,24.));
#1412=CARTESIAN_POINT('',(36.399999375735,-6.50000028312206,24.));
#1413=CARTESIAN_POINT('Origin',(37.499999375735,-6.50000028312206,24.));
#1414=CARTESIAN_POINT('Origin',(57.499999375735,53.4999997168779,24.));
#1415=CARTESIAN_POINT('',(-3.60000062426499,-6.50000028312206,24.));
#1416=CARTESIAN_POINT('Origin',(-2.50000062426499,-6.50000028312206,24.));
#1417=CARTESIAN_POINT('Origin',(4.99999937573502,0.999999716877937,24.));
#1418=CARTESIAN_POINT('',(4.999999375735,0.999999716877937,24.));
#1419=CARTESIAN_POINT('',(4.999999375735,120.999999716878,24.));
#1420=CARTESIAN_POINT('',(4.99999937573501,120.999999716878,24.));
#1421=CARTESIAN_POINT('',(5.00000007450581,120.999999716878,24.));
#1422=CARTESIAN_POINT('',(4.99999937573502,0.999999716877937,24.));
#1423=CARTESIAN_POINT('Origin',(57.499999375735,53.4999997168779,25.));
#1424=CARTESIAN_POINT('',(124.999999375735,-14.0000002831221,25.));
#1425=CARTESIAN_POINT('',(5.00000007450581,-14.0000002086163,25.));
#1426=CARTESIAN_POINT('',(124.999999375735,0.999999716877937,25.));
#1427=CARTESIAN_POINT('',(124.999999375735,0.999999716877937,25.));
#1428=CARTESIAN_POINT('',(4.99999937573502,0.999999716877937,25.));
#1429=CARTESIAN_POINT('Origin',(-2.50000062426499,-6.50000028312206,0.));
#1430=CARTESIAN_POINT('',(-3.60000062426499,-6.50000028312206,0.));
#1431=CARTESIAN_POINT('',(-3.60000062426499,-6.50000028312206,0.));
#1432=CARTESIAN_POINT('Origin',(-2.50000062426499,-6.50000028312206,0.));
#1433=CARTESIAN_POINT('Origin',(37.499999375735,-6.50000028312206,0.));
#1434=CARTESIAN_POINT('',(36.399999375735,-6.50000028312206,0.));
#1435=CARTESIAN_POINT('',(36.399999375735,-6.50000028312206,0.));
#1436=CARTESIAN_POINT('Origin',(37.499999375735,-6.50000028312206,0.));
#1437=CARTESIAN_POINT('Origin',(97.499999375735,-6.50000028312206,0.));
#1438=CARTESIAN_POINT('',(96.399999375735,-6.50000028312206,0.));
#1439=CARTESIAN_POINT('',(96.399999375735,-6.50000028312206,0.));
#1440=CARTESIAN_POINT('Origin',(97.499999375735,-6.50000028312206,0.));
#1441=CARTESIAN_POINT('Origin',(27.499999375735,-6.50000028312206,0.));
#1442=CARTESIAN_POINT('',(26.399999375735,-6.50000028312206,0.));
#1443=CARTESIAN_POINT('',(26.399999375735,-6.50000028312206,0.));
#1444=CARTESIAN_POINT('Origin',(27.499999375735,-6.50000028312206,0.));
#1445=CARTESIAN_POINT('Origin',(87.499999375735,-6.50000028312206,0.));
#1446=CARTESIAN_POINT('',(86.399999375735,-6.50000028312206,0.));
#1447=CARTESIAN_POINT('',(86.399999375735,-6.50000028312206,0.));
#1448=CARTESIAN_POINT('Origin',(87.499999375735,-6.50000028312206,0.));
#1449=CARTESIAN_POINT('Origin',(57.499999375735,-6.50000028312206,0.));
#1450=CARTESIAN_POINT('',(56.399999375735,-6.50000028312206,0.));
#1451=CARTESIAN_POINT('',(56.399999375735,-6.50000028312206,0.));
#1452=CARTESIAN_POINT('Origin',(57.499999375735,-6.50000028312206,0.));
#1453=CARTESIAN_POINT('Origin',(67.499999375735,-6.50000028312206,0.));
#1454=CARTESIAN_POINT('',(66.399999375735,-6.50000028312206,0.));
#1455=CARTESIAN_POINT('',(66.399999375735,-6.50000028312206,0.));
#1456=CARTESIAN_POINT('Origin',(67.499999375735,-6.50000028312206,0.));
#1457=CARTESIAN_POINT('Origin',(-2.50000062426499,93.4999997168779,0.));
#1458=CARTESIAN_POINT('',(-3.60000062426499,93.4999997168779,0.));
#1459=CARTESIAN_POINT('',(-3.60000062426499,93.4999997168779,0.));
#1460=CARTESIAN_POINT('Origin',(-2.50000062426499,93.4999997168779,0.));
#1461=CARTESIAN_POINT('Origin',(-2.50000062426499,33.4999997168779,0.));
#1462=CARTESIAN_POINT('',(-3.60000062426499,33.4999997168779,0.));
#1463=CARTESIAN_POINT('',(-3.60000062426499,33.4999997168779,0.));
#1464=CARTESIAN_POINT('Origin',(-2.50000062426499,33.4999997168779,0.));
#1465=CARTESIAN_POINT('Origin',(-2.50000062426499,113.499999716878,0.));
#1466=CARTESIAN_POINT('',(-3.60000062426499,113.499999716878,0.));
#1467=CARTESIAN_POINT('',(-3.60000062426499,113.499999716878,0.));
#1468=CARTESIAN_POINT('Origin',(-2.50000062426499,113.499999716878,0.));
#1469=CARTESIAN_POINT('Origin',(-2.50000062426499,53.4999997168779,0.));
#1470=CARTESIAN_POINT('',(-3.60000062426499,53.4999997168779,0.));
#1471=CARTESIAN_POINT('',(-3.60000062426499,53.4999997168779,0.));
#1472=CARTESIAN_POINT('Origin',(-2.50000062426499,53.4999997168779,0.));
#1473=CARTESIAN_POINT('Origin',(-2.50000062426499,23.4999997168779,0.));
#1474=CARTESIAN_POINT('',(-3.60000062426499,23.4999997168779,0.));
#1475=CARTESIAN_POINT('',(-3.60000062426499,23.4999997168779,0.));
#1476=CARTESIAN_POINT('Origin',(-2.50000062426499,23.4999997168779,0.));
#1477=CARTESIAN_POINT('Origin',(-2.50000062426499,63.4999997168779,0.));
#1478=CARTESIAN_POINT('',(-3.60000062426499,63.4999997168779,0.));
#1479=CARTESIAN_POINT('',(-3.60000062426499,63.4999997168779,0.));
#1480=CARTESIAN_POINT('Origin',(-2.50000062426499,63.4999997168779,0.));
#1481=CARTESIAN_POINT('Origin',(117.499999375735,-6.50000028312206,0.));
#1482=CARTESIAN_POINT('',(116.399999375735,-6.50000028312206,0.));
#1483=CARTESIAN_POINT('',(116.399999375735,-6.50000028312206,0.));
#1484=CARTESIAN_POINT('Origin',(117.499999375735,-6.50000028312206,0.));
#1485=CARTESIAN_POINT('Origin',(-2.50000062426499,73.4999997168779,0.));
#1486=CARTESIAN_POINT('',(-3.60000062426499,73.4999997168779,0.));
#1487=CARTESIAN_POINT('',(-3.60000062426499,73.4999997168779,0.));
#1488=CARTESIAN_POINT('Origin',(-2.50000062426499,73.4999997168779,0.));
#1489=CARTESIAN_POINT('Origin',(-2.50000062426499,43.4999997168779,0.));
#1490=CARTESIAN_POINT('',(-3.60000062426499,43.4999997168779,0.));
#1491=CARTESIAN_POINT('',(-3.60000062426499,43.4999997168779,0.));
#1492=CARTESIAN_POINT('Origin',(-2.50000062426499,43.4999997168779,0.));
#1493=CARTESIAN_POINT('Origin',(-2.50000062426499,103.499999716878,0.));
#1494=CARTESIAN_POINT('',(-3.60000062426499,103.499999716878,0.));
#1495=CARTESIAN_POINT('',(-3.60000062426499,103.499999716878,0.));
#1496=CARTESIAN_POINT('Origin',(-2.50000062426499,103.499999716878,0.));
#1497=CARTESIAN_POINT('Origin',(-2.50000062426499,83.4999997168779,0.));
#1498=CARTESIAN_POINT('',(-3.60000062426499,83.4999997168779,0.));
#1499=CARTESIAN_POINT('',(-3.60000062426499,83.4999997168779,0.));
#1500=CARTESIAN_POINT('Origin',(-2.50000062426499,83.4999997168779,0.));
#1501=CARTESIAN_POINT('Origin',(17.499999375735,-6.50000028312206,0.));
#1502=CARTESIAN_POINT('',(16.399999375735,-6.50000028312206,0.));
#1503=CARTESIAN_POINT('',(16.399999375735,-6.50000028312206,0.));
#1504=CARTESIAN_POINT('Origin',(17.499999375735,-6.50000028312206,0.));
#1505=CARTESIAN_POINT('Origin',(77.499999375735,-6.50000028312206,0.));
#1506=CARTESIAN_POINT('',(76.399999375735,-6.50000028312206,0.));
#1507=CARTESIAN_POINT('',(76.399999375735,-6.50000028312206,0.));
#1508=CARTESIAN_POINT('Origin',(77.499999375735,-6.50000028312206,0.));
#1509=CARTESIAN_POINT('Origin',(-2.50000062426499,13.4999997168779,0.));
#1510=CARTESIAN_POINT('',(-3.60000062426499,13.4999997168779,0.));
#1511=CARTESIAN_POINT('',(-3.60000062426499,13.4999997168779,0.));
#1512=CARTESIAN_POINT('Origin',(-2.50000062426499,13.4999997168779,0.));
#1513=CARTESIAN_POINT('Origin',(47.499999375735,-6.50000028312206,0.));
#1514=CARTESIAN_POINT('',(46.399999375735,-6.50000028312206,0.));
#1515=CARTESIAN_POINT('',(46.399999375735,-6.50000028312206,0.));
#1516=CARTESIAN_POINT('Origin',(47.499999375735,-6.50000028312206,0.));
#1517=CARTESIAN_POINT('Origin',(7.49999937573501,-6.50000028312206,0.));
#1518=CARTESIAN_POINT('',(6.39999937573501,-6.50000028312206,0.));
#1519=CARTESIAN_POINT('',(6.39999937573501,-6.50000028312206,0.));
#1520=CARTESIAN_POINT('Origin',(7.49999937573501,-6.50000028312206,0.));
#1521=CARTESIAN_POINT('Origin',(-2.50000062426499,3.49999971687794,0.));
#1522=CARTESIAN_POINT('',(-3.60000062426499,3.49999971687794,0.));
#1523=CARTESIAN_POINT('',(-3.60000062426499,3.49999971687794,0.));
#1524=CARTESIAN_POINT('Origin',(-2.50000062426499,3.49999971687794,0.));
#1525=CARTESIAN_POINT('Origin',(107.499999375735,-6.50000028312206,0.));
#1526=CARTESIAN_POINT('',(106.399999375735,-6.50000028312206,0.));
#1527=CARTESIAN_POINT('',(106.399999375735,-6.50000028312206,0.));
#1528=CARTESIAN_POINT('Origin',(107.499999375735,-6.50000028312206,0.));
#1529=CARTESIAN_POINT('Origin',(-10.000000624265,120.999999716878,0.));
#1530=CARTESIAN_POINT('',(-10.000000624265,-14.0000002831221,0.));
#1531=CARTESIAN_POINT('',(-10.000000624265,120.999999716878,0.));
#1532=CARTESIAN_POINT('',(-10.000000624265,0.999999716877937,0.));
#1533=CARTESIAN_POINT('',(-10.000000624265,-14.0000002831221,0.));
#1534=CARTESIAN_POINT('',(-10.000000624265,120.999999716878,0.));
#1535=CARTESIAN_POINT('Origin',(4.99999937573501,120.999999716878,0.));
#1536=CARTESIAN_POINT('',(4.99999937573501,120.999999716878,0.));
#1537=CARTESIAN_POINT('',(-10.000000624265,120.999999716878,0.));
#1538=CARTESIAN_POINT('',(4.99999937573501,120.999999716878,0.));
#1539=CARTESIAN_POINT('Origin',(4.99999937573501,0.999999716877937,0.));
#1540=CARTESIAN_POINT('',(4.99999937573501,0.999999716877937,0.));
#1541=CARTESIAN_POINT('',(4.99999937573501,120.999999716878,0.));
#1542=CARTESIAN_POINT('',(4.99999937573501,0.999999716877937,0.));
#1543=CARTESIAN_POINT('Origin',(124.999999375735,0.999999716877937,0.));
#1544=CARTESIAN_POINT('',(124.999999375735,0.999999716877937,0.));
#1545=CARTESIAN_POINT('',(4.99999937573501,0.999999716877937,0.));
#1546=CARTESIAN_POINT('',(124.999999375735,0.999999716877937,0.));
#1547=CARTESIAN_POINT('Origin',(124.999999375735,-14.0000002831221,0.));
#1548=CARTESIAN_POINT('',(124.999999375735,-14.0000002831221,0.));
#1549=CARTESIAN_POINT('',(124.999999375735,0.999999716877937,0.));
#1550=CARTESIAN_POINT('',(124.999999375735,-14.0000002831221,0.));
#1551=CARTESIAN_POINT('Origin',(-10.000000624265,-14.0000002831221,0.));
#1552=CARTESIAN_POINT('',(124.999999375735,-14.0000002831221,0.));
#1553=CARTESIAN_POINT('Origin',(57.499999375735,53.4999997168779,0.));
#1554=UNCERTAINTY_MEASURE_WITH_UNIT(LENGTH_MEASURE(0.01),#1558,
'DISTANCE_ACCURACY_VALUE',
'Maximum model space distance between geometric entities at asserted c
onnectivities');
#1555=UNCERTAINTY_MEASURE_WITH_UNIT(LENGTH_MEASURE(0.01),#1558,
'DISTANCE_ACCURACY_VALUE',
'Maximum model space distance between geometric entities at asserted c
onnectivities');
#1556=(
GEOMETRIC_REPRESENTATION_CONTEXT(3)
GLOBAL_UNCERTAINTY_ASSIGNED_CONTEXT((#1554))
GLOBAL_UNIT_ASSIGNED_CONTEXT((#1558,#1560,#1561))
REPRESENTATION_CONTEXT('','3D')
);
#1557=(
GEOMETRIC_REPRESENTATION_CONTEXT(3)
GLOBAL_UNCERTAINTY_ASSIGNED_CONTEXT((#1555))
GLOBAL_UNIT_ASSIGNED_CONTEXT((#1558,#1560,#1561))
REPRESENTATION_CONTEXT('','3D')
);
#1558=(
LENGTH_UNIT()
NAMED_UNIT(*)
SI_UNIT(.MILLI.,.METRE.)
);
#1559=(
LENGTH_UNIT()
NAMED_UNIT(*)
SI_UNIT($,.METRE.)
);
#1560=(
NAMED_UNIT(*)
PLANE_ANGLE_UNIT()
SI_UNIT($,.RADIAN.)
);
#1561=(
NAMED_UNIT(*)
SI_UNIT($,.STERADIAN.)
SOLID_ANGLE_UNIT()
);
#1562=SHAPE_DEFINITION_REPRESENTATION(#1563,#1564);
#1563=PRODUCT_DEFINITION_SHAPE('',$,#1566);
#1564=SHAPE_REPRESENTATION('',(#899),#1556);
#1565=PRODUCT_DEFINITION_CONTEXT('part definition',#1570,'design');
#1566=PRODUCT_DEFINITION('2026-05-22-12-25-05-009','Point_holder_v2',#1567,
#1565);
#1567=PRODUCT_DEFINITION_FORMATION('',$,#1572);
#1568=PRODUCT_RELATED_PRODUCT_CATEGORY('Point_holder_v2',
'Point_holder_v2',(#1572));
#1569=APPLICATION_PROTOCOL_DEFINITION('international standard',
'automotive_design',2009,#1570);
#1570=APPLICATION_CONTEXT(
'Core Data for Automotive Mechanical Design Process');
#1571=PRODUCT_CONTEXT('part definition',#1570,'mechanical');
#1572=PRODUCT('2026-05-22-12-25-05-009','Point_holder_v2',$,(#1571));
#1573=PRESENTATION_STYLE_ASSIGNMENT((#1574));
#1574=SURFACE_STYLE_USAGE(.BOTH.,#1575);
#1575=SURFACE_SIDE_STYLE('',(#1576));
#1576=SURFACE_STYLE_FILL_AREA(#1577);
#1577=FILL_AREA_STYLE('Steel - Satin',(#1578));
#1578=FILL_AREA_STYLE_COLOUR('Steel - Satin',#1579);
#1579=COLOUR_RGB('Steel - Satin',0.627450980392157,0.627450980392157,0.627450980392157);
ENDSEC;
END-ISO-10303-21;
